<svg width="87" height="73" viewBox="0 0 87 73" fill="none" xmlns="http://www.w3.org/2000/svg">
<circle cx="17.2778" cy="41.734" r="12.6343" transform="rotate(10.5256 17.2778 41.734)" fill="#EF7E7E"/>
<circle cx="70.7387" cy="53.5949" r="12.6343" transform="rotate(10.5256 70.7387 53.5949)" fill="#EF7E7E"/>
<path d="M17.7895 41.8719L32.6429 21.7713M32.3491 4.49559L31.6117 8.46422C31.3807 9.70779 31.7514 10.9874 32.6115 11.9148L34.4661 13.9148C35.79 15.3423 35.8937 17.5157 34.7119 19.0628L32.6429 21.7713M32.6429 21.7713L61.8593 35.0722M32.6429 21.7713L49.9999 50.3358M61.8593 35.0722L71.2242 54.2793L49.9999 50.3358M61.8593 35.0722L49.9999 50.3358M61.8593 35.0722L69.5742 25.927M69.5742 25.927L63.7593 24.8466M69.5742 25.927L73.9353 26.7373" stroke="#468745" stroke-width="3" stroke-linecap="round" stroke-linejoin="round"/>
</svg>
