<svg width="78" height="30" viewBox="0 0 78 30" fill="none" xmlns="http://www.w3.org/2000/svg">
<g id="sig">
<g id="enoki">
<path id="Vector 235" d="M1.70508 6.23828H10.8867" stroke="#363D4A" stroke-width="2" stroke-linecap="round"/>
<path id="Vector 236" d="M7.31641 1.13721V27.6618" stroke="#363D4A" stroke-width="2" stroke-linecap="round"/>
<path id="Vector 237" d="M6.80663 8.27832C6.64725 10.6384 5.94825 12.929 5.20938 15.1653C4.78609 16.4464 4.40248 17.8022 3.74609 18.9902" stroke="#363D4A" stroke-width="2" stroke-linecap="round"/>
<path id="Vector 238" d="M7.82617 8.78857C8.05293 11.1803 9.01048 13.5494 9.63143 15.8636C9.84414 16.6564 10.0441 17.4521 10.2402 18.2488C10.2775 18.4006 10.2613 18.425 10.3766 18.4803" stroke="#363D4A" stroke-width="2" stroke-linecap="round"/>
<path id="Vector 270" d="M14.7598 25.7881C17.0232 26.071 19.1928 27.0074 21.358 27.68C22.0915 27.9078 22.942 28.2077 23.6936 28.1004" stroke="#363D4A" stroke-width="2" stroke-linecap="round"/>
<path id="Vector 269" d="M16.371 23.0136C16.7409 23.0136 20.017 22.9396 19.9999 23.1366C19.9044 24.2372 18.3164 25.617 17.675 26.2816C16.534 27.464 15.4334 28.3563 14 29" stroke="#363D4A" stroke-width="2" stroke-linecap="round"/>
<path id="Vector 239" d="M13.9473 1.64746H20.5784" stroke="#363D4A" stroke-width="2" stroke-linecap="round"/>
<path id="Vector 240" d="M17.5185 1.64746C17.4055 2.00381 17.0659 2.2927 16.8916 2.62642C16.5808 3.22135 16.4022 3.90059 16.2327 4.54312C16.1266 4.94546 15.9883 5.30865 15.9883 5.72817" stroke="#363D4A" stroke-width="2" stroke-linecap="round"/>
<path id="Vector 241" d="M13.4375 6.74805C13.4375 10.6732 13.4321 14.5605 13.8248 18.4667C13.8946 19.1609 13.9476 19.8247 13.9476 20.5205" stroke="#363D4A" stroke-width="2" stroke-linecap="round"/>
<path id="Vector 267" d="M14 7.0048C15.0636 7.0048 16.1271 7.0048 17.1907 7.0048C17.5043 7.0048 17.8268 6.99189 18.1408 7.0084C18.3929 7.02166 18.2964 7.3794 18.2999 7.5091C18.3497 9.37649 18.7508 11.2848 19.1086 13.1285C19.3162 14.1984 19.7014 15.1847 20.0808 16.2155C20.4256 17.1522 20.4529 18.1081 21 19" stroke="#363D4A" stroke-width="2" stroke-linecap="round"/>
<path id="Vector 243" d="M13.9473 11.3389H18.028" stroke="#363D4A" stroke-width="2" stroke-linecap="round"/>
<path id="Vector 244" d="M13.4375 14.9097H18.0283" stroke="#363D4A" stroke-width="2" stroke-linecap="round"/>
<path id="Vector 245" d="M15 20H21.1211" stroke="#363D4A" stroke-width="2" stroke-linecap="round"/>
<path id="Vector 268" d="M16 21C15.8122 21.5878 15.0586 22.1927 14.6528 22.6087C14.1454 23.1289 13.5669 23.5563 13 24" stroke="#363D4A" stroke-width="2" stroke-linecap="round"/>
</g>
<g id="da">
<path id="Vector 249" d="M25.0848 9C24.9536 9.04339 25.0138 9.6322 25.0139 9.66678C25.0192 11.4201 25.0923 13.1693 25.1872 14.9177C25.3105 17.1921 25.5101 19.4695 25.5101 21.7522" stroke="#363D4A" stroke-width="2" stroke-linecap="round"/>
<path id="Vector 250" d="M26.1914 8.8102C28.1184 8.8102 30.0454 8.8102 31.9724 8.8102C32.5309 8.8102 33.1207 8.76154 33.6786 8.8102C34.0871 8.84584 33.9119 10.7461 33.9145 10.8641C33.9639 13.1391 33.7598 15.6096 34.1955 17.8592C34.2771 18.2807 34.2059 20.7092 34.5 21" stroke="#363D4A" stroke-width="2" stroke-linecap="round"/>
<path id="Vector 252" d="M29 10L30.2695 21" stroke="#363D4A" stroke-width="2" stroke-linecap="round"/>
<path id="Vector 251" d="M26.1914 14.9097H32.8226" stroke="#363D4A" stroke-width="2" stroke-linecap="round"/>
<path id="Vector 253" d="M26 22L34.5 21.5" stroke="#363D4A" stroke-width="2" stroke-linecap="round"/>
</g>
<g id="ko">
<path id="Vector 254" d="M45.5706 6C45.4612 9.44481 45.1614 12.8715 45.1614 16.3212C45.1614 17.6817 44.7561 19.5263 45.5706 20.7926" stroke="#363D4A" stroke-width="2" stroke-linecap="round"/>
<path id="Vector 255" d="M42 16.7119C42 18.748 42 20.7841 42 22.8201C42 22.9249 42.5945 22.3577 42.7262 22.2739C43.926 21.5101 45.2567 20.9258 46.5518 20.3206C47.2959 19.9729 48.7745 19.0956 49.6513 19.0956" stroke="#363D4A" stroke-width="2" stroke-linecap="round"/>
<path id="Vector 256" d="M49.6504 14.1616V20.7928" stroke="#363D4A" stroke-width="2" stroke-linecap="round"/>
<path id="Vector 257" d="M52.0248 11.5605C51.9821 9.76336 52.3068 16.4246 52.3496 18.2217" stroke="#363D4A" stroke-width="2" stroke-linecap="round"/>
<path id="Vector 258" d="M52.0176 10.752C52.9682 10.752 55.5789 10.3313 56.5295 10.3313C57.3184 10.3313 58.6714 9.90831 58.7347 11.0154C58.8848 13.6408 58.6021 21.5344 58.6021 18.9044" stroke="#363D4A" stroke-width="2" stroke-linecap="round"/>
<path id="Vector 259" d="M53.0176 14.7666H57.6084" stroke="#363D4A" stroke-width="2" stroke-linecap="round"/>
<path id="Vector 260" d="M53.0176 19.252L58.7803 18.9233" stroke="#363D4A" stroke-width="2" stroke-linecap="round"/>
<path id="Vector 261" d="M55.7188 11.272V28.1049" stroke="#363D4A" stroke-width="2" stroke-linecap="round"/>
</g>
<g id="ta">
<path id="Vector 262" d="M63 12.8695C67.0923 12.715 71.1329 12.3594 75.2421 12.3594" stroke="#363D4A" stroke-width="2" stroke-linecap="round"/>
<path id="Vector 263" d="M68.5695 7C68.5695 10.3173 68.7435 13.643 68.5146 16.9589C68.3414 19.4693 67.759 22.0747 63.6328 24" stroke="#363D4A" stroke-width="2" stroke-linecap="round"/>
<path id="Vector 264" d="M69.1191 14.3994C69.6324 16.3775 71.4305 18.3704 72.7006 19.9519C73.9143 21.4632 75.2259 22.8754 76.7705 24.0911" stroke="#363D4A" stroke-width="2" stroke-linecap="round"/>
<path id="Vector 265" d="M71.1602 23.5811L72.6328 25" stroke="#363D4A" stroke-width="2" stroke-linecap="round"/>
</g>
</g>
</svg>
