<svg width="214" height="41" viewBox="0 0 214 41" fill="none" xmlns="http://www.w3.org/2000/svg">
<path d="M139.705 11.2383H148.887" stroke="#363D4A" stroke-width="2" stroke-linecap="round"/>
<path d="M145.316 6.13721V32.6618" stroke="#363D4A" stroke-width="2" stroke-linecap="round"/>
<path d="M144.807 13.2783C144.647 15.6384 143.948 17.929 143.209 20.1653C142.786 21.4464 142.402 22.8022 141.746 23.9902" stroke="#363D4A" stroke-width="2" stroke-linecap="round"/>
<path d="M145.826 13.7886C146.053 16.1803 147.01 18.5494 147.631 20.8636C147.844 21.6564 148.044 22.4521 148.24 23.2488C148.278 23.4006 148.261 23.425 148.377 23.4803" stroke="#363D4A" stroke-width="2" stroke-linecap="round"/>
<path d="M151.947 6.64746H158.578" stroke="#363D4A" stroke-width="2" stroke-linecap="round"/>
<path d="M155.519 6.64746C155.405 7.00381 155.066 7.2927 154.892 7.62642C154.581 8.22135 154.402 8.90059 154.233 9.54312C154.127 9.94546 153.988 10.3087 153.988 10.7282" stroke="#363D4A" stroke-width="2" stroke-linecap="round"/>
<path d="M151.438 11.748C151.438 15.6732 151.432 19.5605 151.825 23.4667C151.895 24.1609 151.948 24.8247 151.948 25.5205" stroke="#363D4A" stroke-width="2" stroke-linecap="round"/>
<path d="M151.947 16.3389H156.028" stroke="#363D4A" stroke-width="2" stroke-linecap="round"/>
<path d="M151.438 19.9097H156.028" stroke="#363D4A" stroke-width="2" stroke-linecap="round"/>
<path d="M152.459 26.541H158.58" stroke="#363D4A" stroke-width="2" stroke-linecap="round"/>
<path d="M164.276 13.2783C164.145 13.3217 164.205 13.9105 164.205 13.9451C164.211 15.6984 164.284 17.4476 164.379 19.196C164.502 21.4704 164.701 23.7478 164.701 26.0305" stroke="#363D4A" stroke-width="2" stroke-linecap="round"/>
<path d="M164.191 13.8102C166.118 13.8102 168.045 13.8102 169.972 13.8102C170.531 13.8102 171.121 13.7615 171.679 13.8102C172.087 13.8458 171.912 15.7461 171.914 15.8641C171.964 18.1391 171.76 20.6096 172.195 22.8592C172.277 23.2807 172.569 23.6996 172.863 23.9904" stroke="#363D4A" stroke-width="2" stroke-linecap="round"/>
<path d="M164.191 19.9097H170.823" stroke="#363D4A" stroke-width="2" stroke-linecap="round"/>
<path d="M168.27 15.3188V24.5005" stroke="#363D4A" stroke-width="2" stroke-linecap="round"/>
<path d="M165.721 26.541H171.332" stroke="#363D4A" stroke-width="2" stroke-linecap="round"/>
<path d="M182.553 11.748C182.444 15.1929 182.144 18.6195 182.144 22.0693C182.144 23.4297 181.739 25.2744 182.553 26.5406" stroke="#363D4A" stroke-width="2" stroke-linecap="round"/>
<path d="M178.982 22.46C178.982 24.496 178.982 26.5321 178.982 28.5682C178.982 28.6729 179.577 28.1057 179.709 28.0219C180.908 27.2582 182.239 26.6738 183.534 26.0686C184.278 25.7209 185.757 24.8437 186.634 24.8437" stroke="#363D4A" stroke-width="2" stroke-linecap="round"/>
<path d="M186.633 19.9097V26.5408" stroke="#363D4A" stroke-width="2" stroke-linecap="round"/>
<path d="M189.152 14.9023C189.152 12.8308 189.152 19.0451 189.152 21.1165" stroke="#363D4A" stroke-width="2" stroke-linecap="round"/>
<path d="M189.66 14.5647C190.611 14.5647 191.561 14.5647 192.512 14.5647C193.301 14.5647 194.654 14.1417 194.717 15.2488C194.867 17.8742 194.584 25.7678 194.584 23.1378" stroke="#363D4A" stroke-width="2" stroke-linecap="round"/>
<path d="M188.674 20.9297H193.265" stroke="#363D4A" stroke-width="2" stroke-linecap="round"/>
<path d="M190.172 23.1567H194.763" stroke="#363D4A" stroke-width="2" stroke-linecap="round"/>
<path d="M191.701 15.5054V32.3383" stroke="#363D4A" stroke-width="2" stroke-linecap="round"/>
<path d="M198.367 17.8695C202.46 17.715 206.5 17.3594 210.609 17.3594" stroke="#363D4A" stroke-width="2" stroke-linecap="round"/>
<path d="M204.456 12.2583C204.456 16.0407 204.544 19.8326 204.428 23.6134C204.339 26.4758 204.042 29.4464 201.938 31.6417" stroke="#363D4A" stroke-width="2" stroke-linecap="round"/>
<path d="M204.486 19.3994C205 21.3775 206.798 23.3704 208.068 24.9519C209.282 26.4632 210.593 27.8754 212.138 29.0911" stroke="#363D4A" stroke-width="2" stroke-linecap="round"/>
<path d="M206.527 28.5811H207.037" stroke="#363D4A" stroke-width="2" stroke-linecap="round"/>
<path d="M33.0526 9.41224C26.0913 11.2549 19.5739 14.8277 13.9687 19.3118C9.30789 23.0405 3.26464 28.814 1.1794 34.7048C-0.744135 40.1388 13.3997 38.9589 14.9988 38.8821C30.149 38.1549 43.2681 31.119 56.6858 24.748C57.1928 24.5073 65.9205 20.866 60.1191 22.4591C52.3142 24.6024 44.6904 27.3578 36.8866 29.4975C32.1058 30.8084 42.9788 25.4665 43.0953 25.4061C47.8794 22.9227 52.5757 20.5956 57.9447 19.7696C59.1515 19.584 56.5868 20.305 57.3724 19.3118C61.6828 13.8629 68.3779 9.55612 73.8527 5.37802C74.4067 4.95522 77.7346 2.49286 78.6022 1.77296C78.8877 1.53607 79.7738 0.981928 79.4033 1.00045C77.4007 1.10058 76.0272 3.17119 74.4249 4.37661C68.3723 8.93011 62.555 13.7854 56.8288 18.7396C53.8355 21.3293 49.5376 24.3352 47.1295 27.6092C44.302 31.4533 65.05 29.1312 66.2992 29.0111C67.5804 28.8881 85.562 25.6285 80.6908 31.2428C80.1422 31.8751 72.4848 39.0353 72.5365 39.0538C76.294 40.392 87.1034 36.2844 89.5604 35.5346C102.246 31.6633 113.978 26.107 126.269 21.2574" stroke="#363D4A" stroke-width="2" stroke-linecap="round"/>
<path d="M152.047 11.7665C153.086 11.7665 154.126 11.7665 155.165 11.7665C155.472 11.7665 155.787 11.751 156.094 11.7708C156.34 11.7867 156.246 12.2156 156.249 12.3711C156.298 14.61 156.69 16.898 157.039 19.1085C157.242 20.3912 157.619 21.5737 157.99 22.8097C158.326 23.9327 158.353 25.0788 158.888 26.1481" stroke="#363D4A" stroke-width="2" stroke-linecap="round"/>
<path d="M154.768 27.4697C154.651 27.8201 154.183 28.1806 153.93 28.4285C153.615 28.7385 153.255 28.9933 152.902 29.2577" stroke="#363D4A" stroke-width="2" stroke-linecap="round"/>
<path d="M153.706 29.0013C154.034 29.0013 156.938 28.9414 156.923 29.1005C156.838 29.9894 155.43 31.1038 154.862 31.6405C153.85 32.5955 152.874 33.3162 151.604 33.836" stroke="#363D4A" stroke-width="2" stroke-linecap="round"/>
<path d="M152.76 30.7881C155.023 31.071 157.193 32.0074 159.358 32.68C160.091 32.9078 160.942 33.2077 161.694 33.1004" stroke="#363D4A" stroke-width="2" stroke-linecap="round"/>
</svg>
