<svg viewBox="0 0 96 88" fill="none" xmlns="http://www.w3.org/2000/svg">
<path d="M26.7006 51.4395C27.1097 56.8096 31.8719 64.5807 31.9998 66.4395C31.9998 66.4395 30.4998 73.4395 31.9998 75.4395C35.9998 78.9395 36.5 78.9395 42 80.9395C54.4819 80.9395 48.5 80.1062 60.5 78.9395C66.8952 76.9547 72.1341 76.2199 78.0023 72.9395C81.381 71.0507 82.5663 70.4538 85.4997 67.9395C86.8779 66.7582 87.7809 65.9395 88.7151 61.9395C89.9997 56.4395 89.4997 59.4395 89.4997 53.9395C87.1117 49.1634 88.8213 48.0914 85.4997 43.9395C81.8976 39.4369 80.9997 37.9395 78.0023 32.8369C71.7583 29.162 64.6752 23.8399 57.2169 23.0204C51.4561 22.3873 45.8832 23.3338 40.5715 25.6239C34.8786 28.0783 30.1029 33.6657 26.7004 38.7695C25.4999 43.9395 24.901 45.9395 26.7006 51.4395Z" fill="#FFFBA3" stroke="black" stroke-width="3" stroke-linecap="round"/>
<path d="M86.1104 31.7505C87.6351 32.159 88.9358 33.2269 90.2286 34.6622C90.3366 35.175 90.3192 35.8899 90.1642 36.8125C90.0092 37.7354 89.7506 38.6927 89.4916 39.6519C89.4533 39.7937 89.415 39.9355 89.377 40.0773C88.9749 41.5779 88.2571 42.861 87.373 43.838C85.8087 45.5669 83.8522 46.235 82.1608 45.7818C81.2755 45.5446 80.2986 45.1672 79.4831 44.6515C78.6565 44.1289 78.1197 43.5445 77.8897 42.9394C77.6954 42.428 77.6866 41.6695 77.8911 40.593C78.0359 39.8312 78.2501 39.0719 78.4776 38.2658C78.572 37.9309 78.6688 37.588 78.7638 37.2335C78.9261 36.6277 79.3154 36.0519 79.9105 35.4266C80.2053 35.1169 80.5277 34.818 80.8741 34.5034C80.9256 34.4566 80.9781 34.409 81.0314 34.3608C81.3219 34.0978 81.6336 33.8156 81.9153 33.5367C82.7706 32.6897 83.4657 32.1542 84.1163 31.8712C84.7116 31.6123 85.3246 31.5399 86.1104 31.7505Z" fill="#FFFBA3" stroke="black" stroke-width="3"/>
<path d="M17.7697 57.8289C17.1576 59.2952 17.0733 60.449 17.5326 62.1277C18.0102 62.6274 18.7948 63.1497 19.8436 63.6869C20.8576 64.2063 21.9728 64.6697 23.0604 65.1216C23.2212 65.1884 23.3813 65.2549 23.5405 65.3213C25.3253 66.0665 27.1044 66.4112 28.6834 66.4103C31.5384 66.4086 33.3413 65.3261 33.9215 63.9364C34.6344 62.2287 34.8571 60.2276 33.8944 58.9436C33.4644 58.3702 32.6426 57.8007 31.4392 57.2105C30.5899 56.7941 29.6869 56.4284 28.7546 56.0509C28.3762 55.8977 27.9931 55.7426 27.6067 55.5813C26.7951 55.2424 25.893 55.1466 24.8862 55.1695C24.3835 55.1809 23.877 55.221 23.3506 55.2673C23.2713 55.2743 23.1909 55.2815 23.1098 55.2887C22.6691 55.3281 22.2058 55.3696 21.7647 55.3912C20.5136 55.4526 19.6838 55.7287 19.1081 56.1063C18.5456 56.4753 18.1083 57.0178 17.7697 57.8289Z" fill="#FFFBA3" stroke="black" stroke-width="3"/>
<path d="M54.8884 80.4395C54.8884 81.9633 55.4576 84.0044 54.0251 85.3475C52.2236 87.0368 47.4141 86.4624 45 85.6485" stroke="black" stroke-width="3" stroke-linecap="round"/>
<path d="M84.0874 70.5711C84.802 71.4752 85.3127 73.0392 87.0663 72.9479C89.2718 72.8331 92.7758 69.51 94.288 67.5301" stroke="black" stroke-width="3" stroke-linecap="round"/>
<path d="M42.0997 25.4285C39.5756 25.4285 37.4463 24.2357 35.22 23.1683C33.1342 22.1683 31.1703 21.7304 28.8955 21.5029" stroke="black" stroke-width="3" stroke-linecap="round"/>
<path d="M41.7429 25.428C41.7429 19.5815 42.7038 9.0944 51.0215 11.867" stroke="black" stroke-width="3" stroke-linecap="round"/>
<path d="M41.9586 44.0872C42.8026 45.5495 41.9231 47.6375 40.4608 48.4815C38.9984 49.3256 36.3723 49.261 35.5282 47.7987C34.6842 46.3363 35.942 44.03 37.4043 43.186C38.8666 42.342 41.1145 42.6249 41.9586 44.0872Z" fill="black"/>
<path d="M66.2451 34.9699C67.052 36.3675 66.2117 38.3633 64.8141 39.1702C63.4165 39.9771 61.2679 39.7069 60.461 38.3094C59.6541 36.9118 60.4945 34.916 61.8921 34.1091C63.2896 33.3022 65.4382 33.5723 66.2451 34.9699Z" fill="black"/>
<path d="M58.8963 46.0033C58.8991 46.0375 58.9002 46.1318 58.8517 46.3046C58.7744 46.5799 58.5954 46.9555 58.2724 47.3875C57.6285 48.2485 56.5223 49.1849 55.0117 49.8365C53.4962 50.4903 51.9168 50.7093 50.6956 50.6223C50.083 50.5786 49.6203 50.4623 49.3228 50.3313C49.2111 50.2821 49.1421 50.2402 49.102 50.2118C49.1013 50.1391 49.109 49.993 49.1689 49.7559C49.2711 49.3512 49.4897 48.8335 49.8406 48.2758C50.5461 47.1546 51.675 46.0454 53.0828 45.4381C54.4798 44.8354 55.9371 44.8197 57.1025 45.1021C57.6847 45.2431 58.157 45.4499 58.4869 45.6597C58.7639 45.8359 58.8689 45.9669 58.8963 46.0033Z" stroke="black" stroke-width="3"/>
<path d="M6.02899 27.8981C5.04762 27.9401 2.68944 30.2152 2.4346 31.2834C2.34605 31.6545 7.31256 34.2724 7.83614 34.4976" stroke="#E8132D" stroke-width="3" stroke-linecap="round"/>
<path d="M12.8425 26.4395C12.0557 29.7375 11.9272 33.0465 11.4946 36.3985" stroke="#5664E4" stroke-width="3" stroke-linecap="round"/>
<path d="M15.5146 28.1667C16.1905 28.328 23.3438 29.8239 23.2631 30.1622C23.0779 30.9383 20.0237 32.287 19.3742 32.7871C18.1442 33.7342 17.0481 34.6017 15.6405 35.3316" stroke="#E8132D" stroke-width="3" stroke-linecap="round"/>
<path d="M79.2207 24.1645C79.2207 22.3005 79.9219 24.1751 79.9219 25.0994" stroke="#E8132D" stroke-width="3" stroke-linecap="round"/>
<path d="M77.6501 19.2068C77.1196 18.8658 76.7439 18.047 76.4342 17.5456C75.1367 15.4454 73.8965 13.3029 72.7693 11.1063C72.0214 9.64895 70.7142 7.61498 70.7142 5.88293C70.7142 5.69377 70.4985 5.41163 70.6628 5.31778C72.069 4.51424 72.8545 2.78336 74.3448 2.03818C75.1853 1.61794 75.1516 4.79744 75.184 5.16365C75.4507 8.17609 75.8105 11.181 76.2629 14.1718C76.4774 15.5896 76.7536 17.0363 77.0336 18.4362" stroke="#E8132D" stroke-width="3" stroke-linecap="round"/>
</svg>
