<svg viewBox="0 0 57 56" fill="none" xmlns="http://www.w3.org/2000/svg">
<path d="M19.9356 2.4311C20.7809 2.13116 20.4172 1.99288 21.3402 1.92188C24.0852 1.92188 26.6934 2.42549 29.4079 2.80781C32.0302 3.17714 34.8871 4.15447 37.3248 5.18287C38.2659 5.57989 39.2618 5.86544 40.1711 6.33271C41.5623 7.04764 42.7977 8.08291 44.1484 8.87742C46.4337 10.2217 48.2825 12.1906 50.1897 13.9857C51.1297 14.8704 52.2049 15.7362 52.4705 17.0111C52.6287 17.7704 52.7719 18.5713 53.1397 19.2636C54.9691 22.7073 54.8382 27.5984 53.7523 31.1955C53.0624 33.4807 52.3726 35.7151 51.7919 38.0379C51.3773 39.6965 50.5236 40.7577 49.464 42.0341C48.6558 43.0075 47.9197 43.8664 47.2963 44.9746C46.872 45.7289 46.5162 46.471 45.9014 47.0858C45.1929 47.7943 44.3476 48.3003 43.6489 48.999C43.2353 49.4125 42.6423 49.6596 42.1315 49.9321C41.4408 50.3004 40.9583 51.0039 40.2465 51.3741C38.9786 52.0334 37.8172 52.3691 36.4389 52.6841C34.1405 53.2095 31.7052 54.1437 29.3137 53.9942C28.0902 53.9177 26.8978 53.834 25.6662 53.834C23.994 53.834 22.5887 53.4928 21.0104 52.9009C18.0697 51.7982 15.4561 50.7063 12.9898 48.7446C11.9334 47.9042 10.8943 47.2557 10.0493 46.1621C9.54675 45.5118 9.20529 44.7695 8.61668 44.1641C8.04403 43.5751 7.33874 42.9246 7.0333 42.1472C6.79493 41.5404 6.42809 41.4834 6.14736 40.9219C5.6669 39.961 5.30562 38.9388 4.80904 37.9908C4.08564 36.6098 3.48291 34.9704 3.05601 33.4763C2.39335 31.157 1.93496 28.9568 2.1795 26.5113C2.4705 23.6013 4.01376 20.9459 4.51686 18.0949C4.87128 16.0866 5.5974 14.5553 6.8825 12.949C8.51837 10.9041 9.53565 8.72102 11.463 6.87935C12.4024 5.98172 13.7294 5.59962 14.7334 4.79646C15.4969 4.18569 16.9314 3.27905 17.9567 3.27905C18.742 3.27905 19.1992 2.6924 19.9356 2.4311Z" fill="#69B6FE" stroke="black" stroke-width="3" stroke-linecap="round"/>
<path d="M24.6521 10.3449C24.9343 9.81129 25.1712 8.66261 24.7647 8.58716C25.0701 8.1299 24.5936 8.12641 24.4607 7.82768C24.3743 7.63361 23.6325 7.42504 23.4792 7.40102C23.1404 7.34795 22.5736 7.27731 22.3322 6.94448C22.2086 6.77415 21.606 6.9274 21.4099 6.8743C20.7546 6.69684 20.0613 7.13013 19.4416 6.88C18.9649 6.6876 18.2274 6.33406 17.764 6.42196C14.6687 7.00919 10.5076 6.59286 8.74265 10.1967C8.50023 10.6917 9.2838 11.8723 9.53789 12.1704C10.2825 13.044 11.0791 13.022 11.9733 12.8524C12.6807 12.7182 13.8905 12.1591 14.5804 12.3987C15.2337 12.6256 16.1822 13.2392 16.8539 13.2033C17.4232 13.1728 18.0904 12.7894 18.517 12.3873C18.7611 12.1571 18.7868 11.8126 19.1497 11.685C19.8836 11.427 20.7248 11.376 21.4874 11.2313C22.5261 11.0343 23.7866 11.0386 24.6521 10.3449Z" fill="#38994F" stroke="black" stroke-width="2" stroke-linecap="round"/>
<path d="M44.4591 44.1223C44.9425 44.4156 45.2953 44.934 46.149 44.7549C47.2457 44.3757 48.1799 43.4253 48.5643 42.619C48.8849 41.9464 49.4815 41.3337 49.8932 40.6783C50.332 39.9797 50.6353 39.2325 50.9548 38.521C51.5794 37.1298 51.8748 35.765 52.4267 34.3799C52.826 33.3779 54.2192 31.4501 53.1813 30.6673C52.7051 30.3081 51.7978 31.2839 51.5489 31.5515L51.5459 31.5548C51.016 32.1247 50.8911 32.6848 50.2657 33.2468C49.8371 33.6319 48.9687 33.8112 48.4034 34.0067C47.4928 34.3216 46.6775 34.9163 45.9875 35.4732C45.3534 35.9849 45.4958 36.9358 45.313 37.5546C44.9272 38.8607 43.4775 38.7037 42.3175 39.653C41.2886 40.4951 42.0605 41.4402 42.3216 42.1953C42.5623 42.8914 42.9891 43.2264 43.5466 43.7359C43.7778 43.9472 44.1785 43.952 44.4591 44.1223Z" fill="#38994F" stroke="black" stroke-width="2" stroke-linecap="round"/>
<path d="M20.0941 20.3413C19.2284 21.2536 18.97 22.4645 18.5376 23.6567C17.8913 23.4224 13.9546 21.3595 13.4542 22.5352C13.2087 23.1122 13.7018 24.7905 12.5689 24.3797C11.1206 23.8545 9.64618 23.4345 8.19817 22.9752C8.0036 22.9135 8.30761 24.0606 8.38463 24.306C8.59921 24.9898 9.34903 25.7358 9.34955 26.4204C9.35086 28.1505 8.48527 29.9059 8.57561 31.5936C8.67683 33.4845 8.72828 35.5505 9.30636 37.3925C9.87885 39.2168 10.8783 39.6468 12.5926 40.2685C13.6846 40.6644 14.9335 40.9548 15.9841 40.195C16.8179 39.592 17.322 38.8881 17.3442 37.8009C17.3552 37.2608 17.0097 36.6612 17.191 36.1613L17.8143 34.4424C18.3482 32.97 19.4746 32.5485 20.89 32.3095C22.3143 32.0691 22.9882 30.4305 23.4273 29.2195C23.9322 27.8272 24.1781 26.4417 24.2252 24.9572C24.2699 23.5465 24.7999 22.0189 24.2264 20.6668C23.808 19.6803 22.1977 19.2234 21.2106 19.4329C20.9033 19.4981 20.3302 20.0925 20.0941 20.3413Z" fill="#38994F" stroke="black" stroke-width="2" stroke-linecap="round"/>
<path d="M22.8841 37.2373C23.2663 36.7643 23.9149 36.224 24.0698 35.6276C25.5135 35.6276 27.6086 37.8755 27.5737 39.0855C27.5357 40.401 27.1086 42.306 26.1403 43.2929C25.3437 44.1048 24.7063 44.9798 23.9105 45.7458C23.5543 46.0888 22.921 46.5124 22.3975 46.5124C21.8713 46.5124 21.5414 46.819 21.0437 46.819C20.656 46.819 19.5748 46.9336 19.4599 46.4357C19.292 45.7088 19.7892 44.9941 20.2473 44.4853C20.4783 44.2288 22.3178 43.0335 22.3178 42.7563C22.3178 42.2476 22.339 41.7673 22.1232 41.2999C21.8415 40.6899 21.4788 39.0157 22.0347 38.4212C22.3719 38.0605 22.5709 37.6249 22.8841 37.2373Z" fill="#38994F" stroke="black" stroke-width="2" stroke-linecap="round"/>
<path d="M34.995 25.1109C34.6617 25.4032 34.2852 25.7364 33.9374 26.1318C33.8956 26.1068 33.8508 26.0785 33.8031 26.047C33.4684 25.8254 33.1158 25.5227 32.8774 25.2945C32.7761 25.1975 32.6557 25.0774 32.5281 24.9502C32.3216 24.7442 32.0963 24.5194 31.9024 24.3433C31.5451 24.0188 31.1254 23.6914 30.5999 23.4517C30.5104 23.4109 30.3683 23.2774 30.0668 22.8657C30.0426 22.8327 30.0167 22.7967 29.989 22.7583C29.7576 22.4372 29.4035 21.9457 28.9513 21.6305C28.4454 21.2777 27.7202 20.4986 27.2498 19.8525C26.3402 18.6034 26.4364 17.5454 26.8888 16.6909C27.3831 15.7571 28.3461 15.0108 29.1946 14.6716C29.8593 14.4059 30.5044 14.0888 31.112 13.7901L31.1347 13.779C31.761 13.4711 32.3499 13.1824 32.9493 12.9428C33.7033 12.6414 34.3123 12.2595 34.7777 11.63C35.2169 11.036 35.4629 10.3047 35.6811 9.46255C35.8515 8.80468 36.0825 8.07486 36.3821 7.44433C36.6936 6.78875 37.02 6.36862 37.3148 6.17876C37.4198 6.11107 37.5036 6.06078 37.5784 6.02378C37.6009 6.01268 37.6202 6.00401 37.6365 5.99724C38.2224 6.62529 38.6534 7.29126 38.9905 8.13466C39.075 8.3459 39.1571 8.72297 39.2612 9.29232C39.278 9.3843 39.2953 9.48011 39.313 9.57888C39.3965 10.0434 39.4918 10.5735 39.6125 11.0781C39.7573 11.6836 39.9585 12.3442 40.2773 12.8911C40.5982 13.4417 41.1248 14.017 41.9563 14.1505C42.5489 14.2457 43.0938 14.1716 43.5892 13.9098C44.0531 13.6648 44.3958 13.2946 44.6686 12.9491C44.8135 12.7655 44.8876 12.5758 44.9288 12.4468C44.965 12.3332 44.9896 12.2192 45.0039 12.1514C45.0442 12.1332 45.103 12.1094 45.1866 12.0816C45.2776 12.0514 45.3685 12.0253 45.4784 11.9937C45.504 11.9863 45.5307 11.9786 45.5587 11.9705C45.691 11.9322 45.8611 11.882 46.0226 11.8174C46.0501 11.8064 46.0767 11.7957 46.1025 11.7854C46.3992 11.6665 46.5835 11.5926 46.7684 11.5627C46.9194 11.5383 47.0141 11.5542 47.1228 11.6218C47.3146 11.7413 47.5329 12.0417 47.8552 12.6573C47.8963 12.7359 47.94 12.8215 47.9862 12.9122C48.234 13.3985 48.5551 14.0287 48.958 14.4853C49.5704 15.1791 50.2189 15.4575 50.8527 15.5781C51.1021 15.6256 51.3534 15.6489 51.5532 15.6673C51.5793 15.6697 51.6046 15.6721 51.6288 15.6744C51.8568 15.696 52.0349 15.7167 52.207 15.7571C52.2246 15.7612 52.2391 15.7653 52.251 15.7691C52.2447 15.8285 52.2197 15.9139 52.1679 16.0025C52.1123 16.0977 52.0535 16.1495 52.0268 16.1665C50.8453 16.9169 50.0039 17.4135 49.0861 17.1849C48.3053 16.9906 47.5223 17.0731 46.8714 17.1929C46.5473 17.2526 46.2295 17.3271 45.9466 17.3935L45.931 17.3971C45.6343 17.4667 45.3806 17.5258 45.1469 17.5669C44.5317 17.6749 44.1824 18.1078 44.0064 18.4681C43.8397 18.8095 43.7693 19.1918 43.7315 19.4983C43.6921 19.8181 43.6782 20.1516 43.6678 20.4264C43.667 20.4465 43.6663 20.4663 43.6655 20.4857C43.6555 20.7532 43.6482 20.9466 43.6311 21.0935C43.4921 22.2864 43.3567 22.7795 42.9427 23.1456C42.3454 23.674 41.8099 23.9805 41.3119 24.0691C40.8603 24.1494 40.3149 24.0731 39.6125 23.5626C39.1281 23.2107 38.5399 22.9812 37.9222 23.0019C37.2776 23.0235 36.6774 23.3183 36.2549 23.87C35.9367 24.2856 35.5417 24.6318 35.0589 25.0549C35.0378 25.0734 35.0165 25.0921 34.995 25.1109ZM34.255 26.2829C34.2551 26.2831 34.2519 26.2826 34.2453 26.2808C34.2516 26.2818 34.2549 26.2827 34.255 26.2829ZM52.2972 15.7891C52.2971 15.7891 52.2958 15.7884 52.2935 15.7866C52.2962 15.7881 52.2973 15.789 52.2972 15.7891ZM52.2518 15.7241C52.2516 15.723 52.2515 15.7224 52.2515 15.7224L52.2518 15.7241Z" fill="#38994F" stroke="black" stroke-width="2" stroke-linecap="round"/>
</svg>
