<svg viewBox="0 0 32 32" fill="none" xmlns="http://www.w3.org/2000/svg">
<path d="M15.9714 22.4521C15.9777 22.4579 16.9678 22.4268 16.9084 22.7511C16.8214 23.2262 14.7693 24.8958 14.5597 25.0341C14.3226 25.1904 14.9233 21.483 15.9714 22.4521ZM16.3717 23.902C16.5223 23.902 16.6443 24.0246 16.6443 24.1761C16.6443 24.3276 16.5223 24.4503 16.3717 24.4503C16.2211 24.4503 16.0991 24.3276 16.0991 24.1761C16.0991 24.0246 16.2211 23.902 16.3717 23.902Z" fill="#E67B7B"/>
<path d="M17.3099 25.1045C17.6414 23.7162 18.4774 27.5961 18.651 28.1512C18.981 29.206 16.0953 30.1916 17.3099 25.1045Z" fill="#12762A"/>
<path d="M14.8941 19.7745C14.9284 19.7073 11.9232 29.0108 8.95661 27.6279C7.30509 26.858 13.3378 20.8993 13.7435 20.4031C13.824 20.3047 9.37379 27.0242 9.37379 27.0242C9.37379 27.0242 9.88368 26.9392 10.2172 26.6876C11.885 25.4295 13.1087 22.6828 14.5423 20.4031C14.6706 20.199 14.7847 19.9892 14.8941 19.7745Z" fill="#F6FF8D"/>
<path d="M13.0483 18.0966C12.0816 19.6471 6.37583 26.9415 4.6695 25.6157C3.29122 24.5448 11.9853 19.3581 13.0483 18.0966ZM4.50032 25.3392C4.50318 25.3455 5.12998 25.5221 5.11792 25.5314C4.57267 25.9554 3.90066 24.0159 4.50032 25.3392Z" fill="#837BE6"/>
<path d="M10.0833 19.4422C9.30048 19.422 5.3641 18.8957 5.47821 17.9695C5.57038 17.2214 9.38577 19.3228 10.0833 19.4422ZM5.54294 17.8459C5.54124 17.8483 5.61363 18.1205 5.60753 18.1181C5.33193 18.0079 5.89871 17.3325 5.54294 17.8459Z" fill="#E67B7B"/>
<path d="M19.6346 20.3083C19.6333 20.315 19.0119 20.6116 19.1857 20.855C19.4405 21.2117 21.4085 21.8975 21.5959 21.9414C21.8077 21.991 19.8679 19.1825 19.6346 20.3083ZM20.0031 21.613C19.9106 21.662 19.8876 21.801 19.9518 21.9237C20.016 22.0465 20.1429 22.1062 20.2354 22.0573C20.3279 22.0083 20.3509 21.8693 20.2867 21.7466C20.2225 21.6238 20.0956 21.5641 20.0031 21.613Z" fill="#E67B7B"/>
<path d="M9.48928 12.1662C9.49192 12.1599 10.158 11.9875 10.0333 11.7153C9.85065 11.3164 8.04816 10.2669 7.87247 10.1879C7.67385 10.0987 9.04751 13.2269 9.48928 12.1662ZM9.37417 10.8148C9.47425 10.7845 9.52307 10.6523 9.48325 10.5196C9.44343 10.3868 9.33013 10.3039 9.23005 10.3343C9.12997 10.3646 9.08116 10.4967 9.12098 10.6295C9.16079 10.7623 9.2741 10.8452 9.37417 10.8148Z" fill="#E67B7B"/>
<path d="M13.4213 17.4586C12.9995 16.7689 10.546 13.5446 9.88063 14.1787C9.34316 14.6909 12.9661 16.9023 13.4213 17.4586ZM9.81748 14.3077C9.81851 14.3048 10.069 14.2133 10.0639 14.2093C9.83479 14.0256 9.60034 14.9213 9.81748 14.3077Z" fill="#E67B7B"/>
<path d="M20.0258 23.1139C19.0898 22.0404 20.1457 25.8656 20.2489 26.4382C20.4451 27.5263 23.4553 27.0474 20.0258 23.1139Z" fill="#F6FF8D"/>
<path d="M19.3008 17.4752C19.2397 17.4278 26.2521 24.747 28.0431 22.1601C29.0402 20.7199 21.1389 17.8361 20.5611 17.5536C20.4465 17.4975 27.4037 21.7827 27.4037 21.7827C27.4037 21.7827 26.9391 21.9277 26.5401 21.8406C24.5447 21.4048 22.1951 19.3917 19.898 17.9044C19.6925 17.7713 19.4958 17.6265 19.3008 17.4752Z" fill="#E67B7B"/>
<path d="M20.0003 15.2092C21.4784 16.1792 29.3433 20.2602 30.072 18.3767C30.6607 16.8553 21.4204 15.8833 20.0003 15.2092ZM30.0771 18.0616C30.0778 18.0683 29.6664 18.4855 29.6802 18.4887C30.3054 18.637 29.9364 16.6408 30.0771 18.0616Z" fill="#12762A"/>
<path d="M17.1971 11.4153C17.2026 11.4112 17.8627 11.6055 17.8938 11.3075C17.9395 10.8707 16.9237 9.04197 16.8128 8.8838C16.6874 8.705 16.2784 12.0998 17.1971 11.4153ZM17.7849 10.1946C17.8864 10.22 17.9955 10.1315 18.0287 9.99695C18.0619 9.86237 18.0067 9.73285 17.9053 9.7075C17.8038 9.68214 17.6947 9.77059 17.6615 9.90518C17.6282 10.0398 17.6835 10.1693 17.7849 10.1946Z" fill="#F6FF8D"/>
<path d="M20.0009 10.5279C19.9897 11.9556 21.7312 8.39298 22.0328 7.89641C22.606 6.95275 20.0417 5.29631 20.0009 10.5279Z" fill="#E67B7B"/>
<path d="M16.0034 13.3936C16.0177 13.4699 15.6225 3.3132 12.5743 4.04641C10.8773 4.45459 14.8697 11.8943 15.1142 12.4919C15.1627 12.6103 12.8022 4.75598 12.8022 4.75598C12.8022 4.75598 13.2449 4.95854 13.4853 5.29062C14.6869 6.95102 15.1098 10.0262 15.8413 12.6736C15.9068 12.9105 15.9579 13.1501 16.0034 13.3936Z" fill="#E67B7B"/>
<path d="M14.4967 15.1196C14.0345 13.4064 10.8612 5.09716 9.0714 6.01592C7.62567 6.75804 13.8821 13.6661 14.4967 15.1196ZM8.85916 6.2478C8.86313 6.2423 9.44619 6.20609 9.43803 6.19439C9.06931 5.66542 8.0246 7.40275 8.85916 6.2478Z" fill="#71F0F8"/>
<path d="M16.193 15.1874C16.1641 14.6649 16.3796 12.4437 17.1724 13.4094C17.8128 14.1895 16.2534 14.8189 16.193 15.1874ZM17.2811 13.5726C17.279 13.5691 17.0522 13.3586 17.0539 13.3567C17.1312 13.2714 17.7378 14.3105 17.2811 13.5726Z" fill="#B77BE6"/>
<path d="M18.7197 14.7009C18.7264 14.6996 19.2376 15.1624 19.3941 14.9074C19.6235 14.5337 19.496 12.4428 19.4642 12.2519C19.4282 12.0362 17.5968 14.9173 18.7197 14.7009ZM19.7755 13.857C19.856 13.9241 19.9924 13.8919 20.0803 13.7851C20.1683 13.6783 20.1743 13.5375 20.0938 13.4705C20.0133 13.4034 19.8769 13.4356 19.7889 13.5423C19.701 13.6491 19.695 13.79 19.7755 13.857Z" fill="#E67B7B"/>
<path d="M23.9988 13.6569C22.6472 14.0933 26.5564 14.6414 27.1197 14.7741C28.1902 15.0261 28.9515 12.058 23.9988 13.6569Z" fill="#E67B7B"/>
<path d="M19.6317 13.3577C19.5641 13.3952 29.0308 9.83778 27.3841 7.15555C26.4674 5.66235 20.6924 11.8053 20.2048 12.2259C20.108 12.3093 26.7855 7.59539 26.7855 7.59539C26.7855 7.59539 26.7328 8.08174 26.4945 8.41528C25.3029 10.083 22.5316 11.4497 20.2608 12.9773C20.0576 13.1141 19.8473 13.2379 19.6317 13.3577Z" fill="#71F0F8"/>
<path d="M10.6418 18.3961C10.7075 18.43 1.62177 15.4541 2.97092 12.5121C3.72199 10.8743 9.54291 16.8534 10.0276 17.2555C10.1237 17.3352 3.56054 12.9255 3.56054 12.9255C3.56054 12.9255 3.64376 13.4311 3.88958 13.7617C5.11871 15.4148 7.80127 16.627 10.0279 18.0475C10.2272 18.1746 10.4321 18.2877 10.6418 18.3961Z" fill="#12762A"/>
<path d="M19.5679 6.9751C19.6059 6.31839 20.193 3.01908 21.053 3.12148C21.7477 3.2042 19.6963 6.39067 19.5679 6.9751ZM21.1666 3.17668C21.1644 3.17525 20.909 3.23403 20.9115 3.22893C21.0209 2.99846 21.6362 3.4789 21.1666 3.17668Z" fill="#837BE6"/>
<path d="M19.0739 9.96868C18.5672 9.29069 16.4116 5.55265 17.3426 4.93264C18.0946 4.43183 18.716 9.28609 19.0739 9.96868ZM17.5001 4.89176C17.4967 4.89222 17.2942 5.16404 17.2923 5.157C17.2091 4.83856 18.2124 4.79557 17.5001 4.89176Z" fill="#E67B7B"/>
<path d="M6.1577 6.87354C5.88181 7.14966 5.55905 7.57739 5.43845 7.95686C5.37728 8.02625 5.07131 7.89435 4.98254 7.87043C4.82522 7.82803 4.2944 7.61829 4.16834 7.72386C4.09088 7.78873 4.41338 8.12872 4.44441 8.16057C4.59444 8.31455 4.7746 8.36088 4.97625 8.41522C5.05996 8.43778 5.09294 8.4193 5.02979 8.45596C4.82296 8.57607 4.62308 8.7234 4.42705 8.86025C4.31402 8.93916 4.14194 9.01646 4.10327 9.16161C4.06337 9.31137 4.3258 9.22116 4.40385 9.20416C4.58324 9.1651 4.7518 9.10294 4.91568 9.02028C4.95769 8.99909 5.0651 8.89787 5.11328 8.90554C5.15239 8.91176 5.25326 9.25488 5.27009 9.28379C5.42138 9.54366 5.59798 9.80117 5.80186 10.0222C5.81586 10.0373 6.01545 10.278 6.03755 10.195C6.08416 10.02 6.06559 9.79233 6.07556 9.61421C6.08649 9.41886 6.08985 9.22461 6.08251 9.02911C6.08162 9.00533 6.05908 8.86734 6.083 8.83089C6.16479 8.7063 6.48124 8.66987 6.60603 8.5974C6.72328 8.52932 6.85155 8.43621 6.94191 8.33371C7.01242 8.25374 6.67239 8.2526 6.65803 8.25114C6.57975 8.24315 6.31249 8.27612 6.2461 8.24132C6.13537 8.18327 6.19262 7.89361 6.19578 7.81081C6.208 7.4902 6.18999 7.15955 6.24451 6.84228C6.25605 6.77514 6.17784 6.85338 6.1577 6.87354Z" fill="#71F0F8"/>
<path d="M4.48985 19.4543C4.21396 19.7305 3.8912 20.1582 3.77061 20.5377C3.70943 20.6071 3.40347 20.4752 3.31469 20.4512C3.15737 20.4088 2.62655 20.1991 2.50049 20.3047C2.42303 20.3695 2.74553 20.7095 2.77656 20.7414C2.9266 20.8954 3.10675 20.9417 3.30841 20.996C3.39211 21.0186 3.42509 21.0001 3.36195 21.0368C3.15511 21.1569 2.95524 21.3042 2.7592 21.4411C2.64617 21.52 2.47409 21.5973 2.43542 21.7424C2.39553 21.8922 2.65795 21.802 2.736 21.785C2.91539 21.7459 3.08395 21.6838 3.24784 21.6011C3.28984 21.5799 3.39725 21.4787 3.44543 21.4863C3.48454 21.4926 3.58542 21.8357 3.60224 21.8646C3.75354 22.1245 3.93014 22.382 4.13401 22.603C4.14802 22.6182 4.3476 22.8588 4.36971 22.7758C4.41632 22.6008 4.39774 22.3731 4.40771 22.195C4.41864 21.9997 4.42201 21.8054 4.41467 21.6099C4.41377 21.5861 4.39123 21.4481 4.41515 21.4117C4.49694 21.2871 4.81339 21.2507 4.93819 21.1782C5.05544 21.1101 5.18371 21.017 5.27407 20.9145C5.34457 20.8346 5.00454 20.8334 4.99019 20.8319C4.91191 20.824 4.64464 20.8569 4.57825 20.8221C4.46752 20.7641 4.52477 20.4744 4.52793 20.3916C4.54015 20.071 4.52215 19.7404 4.57666 19.4231C4.5882 19.356 4.50999 19.4342 4.48985 19.4543Z" fill="#E67B7B"/>
<path d="M25.4456 25.6916C25.1772 25.4082 24.759 25.0744 24.3844 24.9449C24.3168 24.8819 24.4545 24.5771 24.4802 24.4883C24.5258 24.331 24.7458 23.8018 24.6436 23.6728C24.5808 23.5935 24.2358 23.9104 24.2035 23.9409C24.0472 24.0884 23.9972 24.2686 23.9388 24.4702C23.9146 24.5539 23.9323 24.5874 23.8972 24.5231C23.7823 24.3125 23.6402 24.1084 23.5084 23.9083C23.4324 23.7929 23.3593 23.6182 23.2159 23.5761C23.0679 23.5328 23.1518 23.7986 23.1671 23.8775C23.202 24.0587 23.2601 24.2296 23.3387 24.3961C23.3589 24.4388 23.4572 24.549 23.4485 24.5973C23.4415 24.6365 23.0982 24.7305 23.0691 24.7468C22.8075 24.8933 22.5477 25.0653 22.3236 25.2655C22.3082 25.2793 22.0647 25.4747 22.1467 25.4988C22.3196 25.5494 22.5464 25.5357 22.7232 25.5496C22.9171 25.5648 23.1101 25.5724 23.3046 25.5693C23.3283 25.5689 23.4659 25.5492 23.5017 25.5741C23.6237 25.659 23.6531 25.978 23.7224 26.1051C23.7875 26.2245 23.8773 26.3555 23.9772 26.4485C24.0552 26.5212 24.0637 26.1793 24.0654 26.1649C24.0751 26.0863 24.0481 25.8169 24.0841 25.7509C24.1442 25.6408 24.4309 25.7046 24.5132 25.7096C24.8316 25.7288 25.1606 25.7179 25.4748 25.7796C25.5413 25.7927 25.4652 25.7123 25.4456 25.6916Z" fill="#71F0F8"/>
<path d="M30.4489 11.4333C30.1804 11.1499 29.7623 10.8161 29.3877 10.6866C29.3201 10.6236 29.4578 10.3188 29.4835 10.23C29.5291 10.0727 29.7491 9.54352 29.6469 9.41447C29.5841 9.33517 29.2391 9.65209 29.2068 9.6826C29.0505 9.83013 29.0005 10.0103 28.9421 10.2119C28.9179 10.2956 28.9356 10.3291 28.9005 10.2648C28.7856 10.0542 28.6435 9.85006 28.5117 9.64996C28.4357 9.53459 28.3626 9.35988 28.2192 9.31784C28.0712 9.27448 28.1551 9.54032 28.1703 9.61917C28.2053 9.80041 28.2634 9.97125 28.342 10.1378C28.3622 10.1805 28.4605 10.2907 28.4518 10.339C28.4448 10.3782 28.1015 10.4722 28.0724 10.4885C27.8108 10.635 27.551 10.807 27.3269 11.0072C27.3115 11.021 27.068 11.2164 27.15 11.2405C27.3229 11.2911 27.5497 11.2774 27.7265 11.2913C27.9204 11.3065 28.1134 11.3141 28.3079 11.311C28.3316 11.3106 28.4692 11.2909 28.5049 11.3158C28.627 11.4007 28.6564 11.7197 28.7257 11.8468C28.7908 11.9662 28.8806 12.0972 28.9805 12.1902C29.0585 12.2629 29.067 11.921 29.0687 11.9066C29.0784 11.828 29.0514 11.5586 29.0874 11.4926C29.1475 11.3825 29.4342 11.4463 29.5165 11.4513C29.8349 11.4705 30.1639 11.4596 30.4781 11.5213C30.5446 11.5344 30.4685 11.454 30.4489 11.4333Z" fill="#12762A"/>
</svg>
