<svg viewBox="0 0 38 36" fill="none" xmlns="http://www.w3.org/2000/svg">
<path d="M6.40316 16.3064C6.40316 19.7491 6.19572 23.1792 6.19572 26.6268C6.39798 26.8291 5.27727 27.7306 5.53091 27.8715C5.89213 28.0722 8.06165 27.7596 8.45456 27.7678C9.5711 27.791 10.6849 27.8715 11.8083 27.8715C13.0954 27.8715 14.3241 27.7024 15.6057 27.6122C18.5373 27.4057 21.5141 27.4566 24.4509 27.4566C26.3833 27.4566 28.2988 27.4522 30.219 27.2088C30.5129 27.1716 30.7618 27.2447 30.778 26.938C30.8725 25.1425 31.5298 23.3477 31.602 21.5444C31.6613 20.0624 31.6077 18.5676 31.6077 17.0844C31.6077 16.1306 31.5558 15.1608 31.6135 14.2089C31.6313 13.9153 32.2639 13.9743 32.449 13.9727C33.7743 13.9613 35.0999 13.9883 36.4251 13.9727C36.7431 13.9689 36.6941 13.9026 36.5346 13.7076C35.2036 12.0808 33.1004 11.0771 32.0687 9.2072C31.7941 8.70946 32.753 5.27636 32.3107 5.25998C31.1512 5.21703 29.9117 5.16434 28.7611 5.31184C28.1797 5.38638 27.8857 5.26895 27.77 5.93418C27.6763 6.47323 27.6663 6.98832 27.6663 7.53612C27.6663 7.67454 27.7495 8.33584 27.4588 8.06049C27.1348 7.75347 25.6093 6.00073 25.3613 5.62877C24.6088 4.5 24.0804 3.29784 23.2408 2.41337C22.994 2.15344 21.8154 0.77976 21.3392 1.03041C21.0157 1.2007 20.7352 1.5289 20.4172 1.72765C19.724 2.16089 19.1518 2.83445 18.4292 3.22587C17.2593 3.85955 15.9532 4.29959 14.7586 4.89119C13.3743 5.57672 12.0268 6.39385 10.6788 7.15004C9.43709 7.84663 8.3521 8.76081 7.14074 9.50108C6.0258 10.1824 4.9686 10.9672 3.96568 11.806C3.6707 12.0527 2.23809 13.1641 2.36374 13.6039C2.38893 13.692 2.76498 13.7127 2.85354 13.7422C3.34146 13.9048 3.79208 13.852 4.31718 13.892C4.87292 13.9343 5.84666 13.777 6.35706 13.9957C6.48479 14.0505 6.40316 14.6303 6.40316 14.7333V16.3064Z" fill="#E6AE7B" stroke="black" stroke-linecap="round"/>
<path d="M2.98033 28.4934C3.60356 27.8356 4.04907 27.8711 4.95106 27.8711C5.49861 27.8711 34.0971 27.1224 34.0971 27.7789C34.0971 28.4146 34.0805 29.0358 34.0164 29.6689C34.0014 29.8175 33.8638 30.4408 34.1547 30.3085C34.6773 30.071 35.1736 30.3899 35.6529 30.4584C36.32 30.5537 36.379 32.3535 36.379 32.8959C36.379 33.4439 35.6921 33.6804 35.2899 33.8351C34.0863 34.2981 32.6775 34.3019 31.4118 34.3019C28.0274 34.3019 24.7261 34.5093 21.3392 34.5093C17.5339 34.5093 13.6926 34.6395 9.89517 34.3825C8.86148 34.3126 7.85823 34.0944 6.81807 34.0944H3.83316C3.25824 34.0944 1.2384 34.3883 0.92893 33.5528C0.746005 33.0589 0.771119 31.4512 1.2401 31.0865C1.61475 30.7951 1.99401 30.4248 2.46748 30.3143C2.82755 30.2303 3.13362 30.3918 3.00338 29.9686C2.89033 29.6012 2.68373 28.8065 2.98033 28.4934Z" fill="#F87171" stroke="black" stroke-linecap="round"/>
<path d="M2 30.8021C5.05973 30.8021 8.12497 31 11.1882 31C13.52 31 15.8293 30.6686 18.1527 30.6043C20.6841 30.5342 23.1798 30.4063 25.7098 30.8021C26.8959 30.9877 28.0286 30.7293 29.2348 30.6482C30.3051 30.5763 31.5701 30.8871 32.6071 30.2085C33.0317 29.9307 33.5193 30.0107 34 30.0107" stroke="black" stroke-linecap="round"/>
<path d="M23.31 26.6844C23.31 26.8765 16.1531 27.0263 16.1531 26.8342C15.9517 26.7335 15.9457 25.9231 15.9457 25.6414C15.9457 24.3919 15.9079 23.1476 15.8189 21.9016C15.7805 21.363 15.4253 16.6694 15.9976 16.6694C17.8417 16.6694 19.6787 16.6834 21.5121 16.4389C22.3169 16.3316 23.0886 16.092 23.8747 15.9491C24.0793 15.9119 24.1382 15.9699 24.1916 16.1623C24.4223 16.9926 24.2646 18.0858 24.2435 18.9513C24.2226 19.8064 23.9967 20.651 23.9323 21.504C23.8563 22.5112 23.777 23.5315 23.6673 24.535C23.589 25.2503 23.31 25.9657 23.31 26.6844Z" fill="#F6FF8D" stroke="black" stroke-linecap="round"/>
<path d="M22.1063 21.2074C22.1063 22.5421 21.4051 21 22.21 21" stroke="black" stroke-linecap="round"/>
<path d="M19.8872 13.039C19.9376 12.4848 20.2294 11.7633 20.6133 11.3794" stroke="black" stroke-linecap="round"/>
<path d="M15.842 12.1053C16.1524 10.997 17.5051 10.0461 18.2449 9.22411C18.7019 8.71636 19.2695 8.1546 19.5761 7.5415" stroke="black" stroke-linecap="round"/>
</svg>
