<svg viewBox="0 0 40 36" fill="none" xmlns="http://www.w3.org/2000/svg">
<path d="M8.57992 16.3064C8.57992 19.7491 8.37247 23.1792 8.37247 26.6268C8.57474 26.8291 7.45403 27.7306 7.70767 27.8715C8.06889 28.0722 10.2384 27.7596 10.6313 27.7678C11.7479 27.791 12.8617 27.8715 13.985 27.8715C15.2722 27.8715 16.5009 27.7024 17.7824 27.6122C20.7141 27.4057 23.6909 27.4566 26.6276 27.4566C28.5601 27.4566 30.4755 27.4522 32.3958 27.2088C32.6897 27.1716 32.9386 27.2447 32.9547 26.938C33.0492 25.1425 33.7066 23.3477 33.7787 21.5444C33.838 20.0624 33.7845 18.5676 33.7845 17.0844C33.7845 16.1306 33.7326 15.1608 33.7903 14.2089C33.8081 13.9153 34.4406 13.9743 34.6258 13.9727C35.951 13.9613 37.2767 13.9883 38.6018 13.9727C38.9198 13.9689 38.8709 13.9026 38.7113 13.7076C37.3803 12.0808 35.2771 11.0771 34.2455 9.2072C33.9709 8.70946 34.9298 5.27636 34.4875 5.25998C33.3279 5.21703 32.0884 5.16434 30.9379 5.31184C30.3565 5.38638 30.0625 5.26895 29.9468 5.93418C29.853 6.47323 29.843 6.98832 29.843 7.53612C29.843 7.67454 29.9262 8.33584 29.6356 8.06049C29.3115 7.75347 27.7861 6.00073 27.5381 5.62877C26.7856 4.5 26.2571 3.29784 25.4175 2.41337C25.1708 2.15344 23.9922 0.77976 23.516 1.03041C23.1924 1.2007 22.912 1.5289 22.594 1.72765C21.9008 2.16089 21.3286 2.83445 20.606 3.22587C19.4361 3.85955 18.1299 4.29959 16.9353 4.89119C15.5511 5.57672 14.2036 6.39385 12.8556 7.15004C11.6138 7.84663 10.5289 8.76081 9.3175 9.50108C8.20256 10.1824 7.14535 10.9672 6.14244 11.806C5.84746 12.0527 4.41484 13.1641 4.5405 13.6039C4.56569 13.692 4.94174 13.7127 5.0303 13.7422C5.51822 13.9048 5.96883 13.852 6.49394 13.892C7.04968 13.9343 8.02341 13.777 8.53382 13.9957C8.66155 14.0505 8.57992 14.6303 8.57992 14.7333V16.3064Z" fill="#B8845F" stroke="black" stroke-width="2" stroke-linecap="round"/>
<path d="M5.15709 28.4934C5.78031 27.8356 6.22583 27.8711 7.12782 27.8711C7.67537 27.8711 36.2739 27.1224 36.2739 27.7789C36.2739 28.4146 36.2573 29.0358 36.1932 29.6689C36.1781 29.8175 36.0405 30.4408 36.3315 30.3085C36.8541 30.071 37.3504 30.3899 37.8297 30.4584C38.4968 30.5537 38.5557 32.3535 38.5557 32.8959C38.5557 33.4439 37.8689 33.6804 37.4667 33.8351C36.263 34.2981 34.8543 34.3019 33.5886 34.3019C30.2042 34.3019 26.9029 34.5093 23.516 34.5093C19.7107 34.5093 15.8694 34.6395 12.0719 34.3825C11.0382 34.3126 10.035 34.0944 8.99482 34.0944H6.00992C5.435 34.0944 3.41516 34.3883 3.10569 33.5528C2.92276 33.0589 2.94788 31.4512 3.41686 31.0865C3.79151 30.7951 4.17076 30.4248 4.64424 30.3143C5.00431 30.2303 5.31037 30.3918 5.18014 29.9686C5.06709 29.6012 4.86049 28.8065 5.15709 28.4934Z" fill="#CAAB70" stroke="black" stroke-width="2" stroke-linecap="round"/>
<path d="M5.05347 30.879C7.93949 30.879 10.8307 30.9827 13.7201 30.9827C15.9195 30.9827 18.0977 30.809 20.2892 30.7753C22.6768 30.7385 25.0308 30.6715 27.4172 30.879C28.5359 30.9763 29.6043 30.8408 30.7421 30.7983C31.7516 30.7606 32.9447 30.9235 33.9229 30.5678C34.3234 30.4222 34.7833 30.4641 35.2367 30.4641" stroke="black" stroke-width="2" stroke-linecap="round"/>
<path d="M25.4868 26.6844C25.4868 26.8765 18.3299 27.0263 18.3299 26.8342C18.1285 26.7335 18.1225 25.9231 18.1225 25.6414C18.1225 24.3919 18.0847 23.1476 17.9957 21.9016C17.9572 21.363 17.602 16.6694 18.1743 16.6694C20.0184 16.6694 21.8555 16.6834 23.6889 16.4389C24.4936 16.3316 25.2654 16.092 26.0515 15.9491C26.256 15.9119 26.315 15.9699 26.3684 16.1623C26.599 16.9926 26.4414 18.0858 26.4203 18.9513C26.3994 19.8064 26.1735 20.651 26.1091 21.504C26.0331 22.5112 25.9538 23.5315 25.844 24.535C25.7658 25.2503 25.4868 25.9657 25.4868 26.6844Z" fill="#F6EF42" stroke="black" stroke-linecap="round"/>
<path d="M24.283 21.2074C24.283 22.5421 23.5819 21 24.3867 21" stroke="black" stroke-linecap="round"/>
<path d="M22.064 13.039C22.1143 12.4848 22.4061 11.7633 22.79 11.3794" stroke="black" stroke-linecap="round"/>
<path d="M18.0188 12.1053C18.3291 10.997 19.6819 10.0461 20.4217 9.22411C20.8787 8.71636 21.4463 8.1546 21.7528 7.5415" stroke="black" stroke-linecap="round"/>
<path d="M4 34.5C2.20786 34.164 0.719717 32.942 1.30689 31.4741C1.53345 30.9077 2.04013 30.1258 2.64804 29.9112C3.03291 29.7754 3.48546 29.7489 3.854 29.5868C4.03611 29.5066 3.68216 28.7025 3.6512 28.562C3.58883 28.2789 3.57279 28.0143 3.57279 27.7264C3.57279 27.4353 4.34663 27.7557 4.50006 27.5C4.6782 27.2031 4.73176 27.1516 5.0221 26.9721C5.43552 26.7163 5.3779 25.9368 5.8495 25.9473C6.09269 25.9527 6.35413 26.0351 6.58227 26.1149C6.66262 26.143 6.74607 26.2009 6.83373 26.1906C6.99187 26.172 6.86309 23.709 6.89322 23.3407C6.93269 22.8582 6.95338 22.3666 7.00679 21.8859C7.0413 21.5753 7.21892 21.2715 7.2231 20.9666C7.23961 19.7611 7.22831 18.5912 7.4286 17.3974C7.53504 16.763 7.53535 16.1392 7.60165 15.5047C7.62914 15.2416 7.31906 15.337 7.12846 15.337C6.97009 15.337 6.81447 15.2856 6.66068 15.2505C6.35453 15.1805 6.03679 15.1505 5.72512 15.1045C5.44613 15.0633 5.24953 14.9375 5.0221 14.78C4.90611 14.6997 4.79928 14.5145 4.69222 14.4609" stroke="black" stroke-width="2" stroke-linecap="round"/>
</svg>
