<svg viewBox="0 0 111 136" fill="none" xmlns="http://www.w3.org/2000/svg">
<path d="M52.6104 130.338C52.6104 131.192 52.8864 132.968 53.9335 133.268C54.6468 133.471 56.4716 133.743 57.1726 133.353C57.6237 133.103 58.1358 133.121 58.6417 133.121C59.1212 133.121 59.5652 132.696 59.9133 132.383C60.3374 132.001 61.1162 130.768 61.1162 130.183" stroke="currentColor" stroke-width="3" stroke-linecap="round"/>
<path d="M41.1662 123.842C41.0723 125.157 40.2383 126.262 40.2383 127.554C40.2383 128.062 41.3062 128.118 41.6989 128.293C42.2403 128.533 43.2081 128.726 43.7953 128.791C44.4112 128.86 45.1512 129.114 45.7456 129.246C47.5496 129.647 49.6322 129.41 51.4934 129.41C54.5178 129.41 57.4994 128.864 60.489 128.49C62.0905 128.29 63.579 128.172 65.2144 128.172C66.7215 128.172 68.7467 127.949 70.0859 127.279C71.3593 126.642 72.2768 125.82 73.1789 124.693C73.6887 124.056 72.744 122.465 72.0964 122.141" stroke="currentColor" stroke-width="3" stroke-linecap="round"/>
<path d="M40.393 117.038C40.2071 118.463 39.3104 119.617 39.3104 121.093C39.3104 122.115 39.2533 122.276 40.0837 122.691C41.01 123.154 41.8179 123.483 42.8674 123.533C43.853 123.58 44.829 123.997 45.8143 123.997C47.3103 123.997 48.8548 124.152 50.3765 124.152C51.1436 124.152 51.9122 124.166 52.6791 124.152C53.3587 124.139 54.0349 123.862 54.6896 123.842C55.6493 123.814 56.5786 123.688 57.5592 123.688C58.5599 123.688 59.4625 123.407 60.4288 123.378C61.3136 123.352 62.194 122.976 63.0923 122.914C63.6489 122.876 65.3177 122.731 65.7471 122.373C66.0426 122.127 66.9529 122.09 67.3366 121.952C67.6507 121.839 67.9875 121.602 68.3074 121.531C68.7078 121.442 69.1494 121.587 69.5532 121.514C69.9073 121.45 70.1884 121.389 70.5499 121.368C70.7817 121.354 70.8956 121.011 71.0826 120.904C71.5563 120.633 71.6195 119.654 71.6324 119.203C71.6662 118.022 72.3489 116.159 71.0138 115.491" stroke="currentColor" stroke-width="3" stroke-linecap="round"/>
<path d="M41.3208 108.841C41.2736 109.361 40.7556 110.628 40.3242 110.998C40.0177 111.261 39.9274 112.133 39.8087 112.519C39.6095 113.166 39.6708 114.475 39.9633 115.027C40.3955 115.844 41.1808 116.048 41.9394 116.385C42.7188 116.731 44.1913 117.038 45.0325 117.038C46.2254 117.038 47.3483 117.347 48.5551 117.347C49.6376 117.347 50.7202 117.347 51.8027 117.347C54.058 117.347 56.2614 117.193 58.4871 117.193C60.2023 117.193 62.0349 117.263 63.5906 116.608C64.4007 116.267 65.2541 116.195 66.065 115.835C66.7517 115.53 67.6893 115.109 68.3847 115.027C69.2542 114.925 69.8474 114.35 70.5499 113.911C71.2923 113.446 71.6324 112.773 71.6324 111.934C71.6324 110.727 71.8245 110.117 70.7045 109.494C70.051 109.131 68.9682 108.377 68.2301 108.377" stroke="currentColor" stroke-width="3" stroke-linecap="round"/>
<path d="M41.3123 100.026C41.6712 102.539 41.9395 105.171 41.9395 107.759L48.5 110L55.5 111H57H58.5L69.0034 108.223V105.671C69.0034 104.803 69.3127 104.109 69.3127 103.274V97.0107C69.3127 95.8759 69.744 94.6929 69.8969 93.5654C69.9846 92.9186 69.9441 92.3782 70.1203 91.744C70.4931 90.4021 70.8874 88.5901 71.6325 87.3794C72.291 86.3092 72.8191 85.4099 73.789 84.5613C74.8561 83.6275 75.9647 82.7035 76.9679 81.7002C78.3651 80.303 79.5009 78.704 80.6366 77.1037C81.5908 75.7591 82.7207 74.3648 83.3859 72.868C83.7611 72.0237 84.1494 71.279 84.5888 70.4881C85.0517 69.6548 85.5018 68.5285 86.1353 67.8246C86.6355 67.2688 87.0824 66.0328 87.2436 65.3072C87.4593 64.3364 87.7161 63.0931 87.7161 62.051C87.7161 60.184 88.0254 58.3116 88.0254 56.4148V53.4765C88.0254 51.4764 88.1306 49.4425 88.0254 47.4451C87.9445 45.9072 86.9864 44.4855 86.7968 42.9688C86.6227 41.576 85.6941 40.0794 85.1644 38.7846C84.8385 37.988 84.8737 37.099 84.5888 36.2758C84.4555 35.8909 84.2254 35.5112 84.0389 35.1589C83.6604 34.444 83.4571 33.7933 83.111 33.0625C82.868 32.5496 82.4292 31.8117 82.312 31.2841C82.2042 30.7992 81.744 30.3735 81.5301 29.8922C81.3449 29.4756 80.9763 29.1876 80.7654 28.801C80.5764 28.4544 80.3349 27.8636 80.0523 27.581C79.2767 26.8054 78.7581 25.8056 77.9731 25.0207C77.0439 24.0915 76.2972 23.279 75.2667 22.4775C73.8802 21.3991 72.1534 20.5987 70.5499 19.7969C69.6367 19.3403 68.6201 18.8994 67.6717 18.6886C66.842 18.5042 66.1374 18.1373 65.3605 17.9153C64.4797 17.6637 63.9484 16.8242 62.972 16.8242C62.0849 16.8242 60.8462 16.6521 60.0336 17.0132C59.3033 17.3378 58.1402 17.5974 57.3272 17.5974C56.4622 17.5974 54.6668 17.828 53.9679 18.3363C53.7911 18.4649 52.9194 18.5254 52.6877 18.5254C52.2916 18.5254 51.8397 18.7568 51.4505 18.8432C50.7044 19.009 50.1183 19.6204 49.44 19.7712C48.7168 19.9319 47.9397 20.4033 47.232 20.6561C46.7128 20.8415 46.159 20.9146 45.6511 21.1544C44.3012 21.7919 42.7619 22.2775 41.5099 23.0961C40.5416 23.7293 39.4737 23.9342 38.477 24.4708C37.6285 24.9277 36.8546 25.5623 35.9854 25.9486C33.7296 26.9512 32.7326 29.661 30.6414 30.8373C29.7253 31.3526 28.98 32.6328 28.4849 33.4921C28.0978 34.1639 27.4363 34.8698 27.2133 35.6057C26.9907 36.3401 26.4127 37.1618 26.0448 37.8567C24.4811 40.8104 22.9174 44.494 22.9174 47.909V55.7962C22.9174 57.9805 23.8757 60.0599 24.3866 62.2056C24.5369 62.837 24.5464 63.5598 24.8076 64.1474C24.9411 64.4478 25.3525 64.7606 25.3918 65.0753C25.4403 65.4628 25.9442 66.0941 26.1307 66.4671C26.3295 66.8647 26.5752 67.5471 26.8524 67.859C27.8223 68.9501 28.9549 70.7089 29.2667 72.1119C29.4699 73.0265 30.3198 73.9861 30.7359 74.8183C31.5898 76.5261 32.9623 78.1239 34.0523 79.6984C34.9705 81.0247 35.9527 82.1519 36.7587 83.5818C37.2498 84.4532 37.5969 85.3602 38.0732 86.1937C38.5809 87.0822 39.1896 88.0832 39.8087 88.8571C40.1388 89.2697 40.049 89.8112 40.2727 90.2834C40.7165 91.2204 40.393 92.7958 40.393 93.806C40.393 95.8133 41.0216 97.9914 41.3123 100.026Z" fill="#FFEC8B" stroke="currentColor" stroke-width="3" stroke-linecap="round"/>
<path d="M41.6301 108.223C42.1199 108.267 43.6228 108.664 43.9499 109.073C44.1907 109.374 45.0132 109.259 45.3074 109.494C46.1159 110.141 47.6647 109.702 48.5894 110.113C49.5773 110.552 50.7592 110.388 51.8371 110.388C52.3849 110.388 52.793 110.542 53.3063 110.542C53.7179 110.542 54.5483 110.648 54.9301 110.817C55.7134 111.166 57.3142 110.852 58.1778 110.852C58.7651 110.852 59.2505 110.697 59.793 110.697C60.2304 110.697 61.1756 110.447 61.5801 110.267C62.6258 109.803 63.7637 109.744 64.8278 109.271C65.3345 109.046 65.9572 109.039 66.4516 108.764C66.8015 108.57 67.5481 108.223 67.9208 108.223" stroke="currentColor" stroke-width="3" stroke-linecap="round"/>
<path d="M52.1464 109.46C52.1464 107.574 52.3452 105.361 51.6481 103.618C51.2214 102.551 49.9265 101.477 48.7441 102.002C46.3329 103.074 46.7336 106.589 46.7336 108.841" stroke="black" stroke-width="3" stroke-linecap="round"/>
<path d="M58.0232 110.542C58.0232 109.202 58.0232 107.862 58.0232 106.521C58.0232 105.736 57.832 104.679 58.1434 103.978C58.4215 103.353 58.6667 101.988 59.5697 101.882C59.9647 101.835 61.1383 101.436 61.5458 101.762C62.6553 102.649 62.8963 104.076 62.972 105.439C62.9987 105.92 62.8687 107.204 63.161 107.57C63.5193 108.017 63.0182 109.328 63.5906 109.614" stroke="black" stroke-width="3" stroke-linecap="round"/>
<g filter="url(#filter0_d_636_36)">
<path d="M48.7441 102.037C48.7441 99.6068 48.7802 97.0145 47.7818 94.7682C47.4882 94.1074 47.7681 93.135 47.4296 92.5257C47.2347 92.175 47.3522 91.5671 47.3522 91.1768C47.3522 90.5538 47.1851 89.879 47.0515 89.278C46.9678 88.9014 46.8883 88.426 46.8883 88.0408C46.8883 87.5941 46.579 87.2881 46.579 86.8466C46.579 85.5995 45.9604 84.3701 45.9604 83.092C45.9604 81.4933 45.785 80.0427 45.3761 78.5298C45.02 77.2122 44.4876 75.7188 44.4139 74.3542C44.3444 73.0685 44.3724 71.528 44.0186 70.2646C43.7621 69.3484 43.1195 68.4761 43.022 67.5496C42.9735 67.0889 42.7811 66.6074 42.6783 66.1577C42.5511 65.601 42.5663 65.071 42.3261 64.5425C41.8167 63.422 41.7649 62.1122 41.0889 60.9855C40.4409 59.9056 39.5997 57.2048 38.2278 57.0333C37.8344 56.9842 37.3785 56.1992 37.0679 55.9508C36.3744 55.3959 35.5988 56.4593 35.5988 57.1107C35.5988 57.7172 35.3876 58.8008 35.6331 59.3531C35.9226 60.0045 36.3303 60.7466 36.7501 61.2862C37.1598 61.813 37.2549 62.4699 37.7295 62.9444C38.1983 63.4132 38.6339 63.8975 39.1214 64.3363C41.2276 66.2319 45.0032 66.1547 47.2749 64.3878C48.3143 63.5794 49.8266 62.4757 49.8266 60.9769C49.8266 60.2209 50.2497 59.4712 50.2906 58.7345C50.3447 57.7614 50.2906 56.7713 50.2906 55.7961C50.2906 55.0361 49.1318 55.3322 48.5121 55.3322C48.2815 55.3322 47.5589 55.2115 47.3866 55.3665C47.0808 55.6417 47.0879 56.349 47.0343 56.724C46.8157 58.2548 46.6449 59.7667 46.7336 61.3636C46.801 62.5768 47.8126 64.3112 48.8987 64.8862C49.4856 65.1968 50.151 65.6885 50.8319 65.8398C51.8509 66.0663 52.2933 65.9382 53.229 65.4704C55.4388 64.3655 56.9316 62.56 57.7998 60.2037C58.1289 59.3103 58.4871 58.4391 58.4871 57.4973C58.4871 56.5633 57.8573 56.4986 57.2155 55.9851C55.6451 54.7288 54.3115 58.1091 54.3115 59.1984C54.3115 60.2348 54.2731 61.0947 54.6208 62.0509C54.9874 63.0589 55.8112 63.6315 56.322 64.5253C56.6213 65.0491 57.9001 65.3845 58.4871 65.3845C59.2603 65.3845 60.0336 65.3845 60.8069 65.3845C62.4062 65.3845 64.4913 65.0568 65.6096 63.7521C66.8128 62.3484 68.1157 60.8345 68.5308 58.9665C68.644 58.4572 68.7128 57.0424 68.2301 56.7584C67.5586 56.3634 67.0156 56.2601 66.2196 56.2601C64.3555 56.2601 63.3765 60.526 62.8173 61.8619C62.1796 63.3853 61.9938 65.042 61.5028 66.6131C61.159 67.7131 61.1931 69.0729 60.7295 70.0927C60.2081 71.2399 60.0336 73.1011 60.0336 74.3542C60.0336 75.8234 60.0336 77.2926 60.0336 78.7618C60.0336 79.9462 60.1467 81.1123 60.1883 82.2758C60.2405 83.7387 60.6522 85.1608 60.6522 86.6232C60.6522 88.2675 61.1162 89.8567 61.1162 91.5205C61.1162 93.0928 61.1162 94.6651 61.1162 96.2373C61.1162 96.6409 61.0816 97.2739 60.8842 97.6292C60.6875 97.9832 60.9315 98.4313 60.7725 98.7891C60.4998 99.4026 60.6522 101.471 60.6522 100.8" stroke="black" stroke-width="3" stroke-linecap="round" shape-rendering="crispEdges"/>
</g>
<path d="M75.4987 38.4754C76.1181 38.4238 78.901 37.7034 78.901 36.6969C78.901 35.8809 77.9992 34.6206 77.5092 33.9905C76.9366 33.2544 76.4742 32.6682 75.7221 32.0832C74.7636 31.3377 74.0397 30.1484 73.2992 29.1964C72.6289 28.3345 71.5342 27.922 70.6272 27.3492C69.0543 26.3557 67.1606 25.3887 65.3261 25.0552C64.0476 24.8227 62.7072 24.2292 61.9668 25.5621C61.6294 26.1694 61.8157 27.657 62.1214 28.2685C62.7509 29.5275 63.4847 30.4311 64.5185 31.3615C66.424 33.0764 68.7171 34.0729 70.8506 35.4597C72.0592 36.2453 73.6573 37.4178 74.4849 38.6215C74.7793 39.0497 75.3468 39.7913 75.808 40.0219" stroke="black" stroke-width="3" stroke-linecap="round"/>
<path d="M79.9836 43.5786C78.6163 43.5786 77.3651 44.4888 77.2084 45.8984C77.056 47.2702 77.345 47.9415 78.7807 47.9088C79.9703 47.8818 80.7975 47.1597 81.1434 46.1218C81.4391 45.2348 81.4672 44.1972 80.4475 44.1972" stroke="black" stroke-width="3" stroke-linecap="round"/>
<path d="M76.3682 15.5029C76.5305 13.3114 77.4856 11.2142 78.1596 9.1432C78.7267 7.40085 79.3078 5.61638 80.1974 4.01514" stroke="currentColor" stroke-width="3" stroke-linecap="round"/>
<path d="M90.2744 31.4248C90.8825 31.2844 91.4571 30.8438 91.9763 30.5178C93.9707 29.2655 96.0134 28.1081 98.0561 26.9349C101.167 25.1482 104.38 23.4748 107.405 21.5493" stroke="currentColor" stroke-width="3" stroke-linecap="round"/>
<path d="M95.1114 52.385C95.0592 52.3154 99.7895 52.1516 100.262 52.1387C103.116 52.0605 105.961 51.9819 108.816 51.9819" stroke="currentColor" stroke-width="3" stroke-linecap="round"/>
<path d="M94.5067 73.1436C96.4336 73.1436 98.2347 73.4876 100.038 74.196C101.408 74.7341 102.81 75.0056 103.778 76.1667" stroke="currentColor" stroke-width="3" stroke-linecap="round"/>
<path d="M84.4297 87.856C86.4193 90.5375 89.1049 92.8435 91.3717 95.2905C92.4589 96.4642 93.381 97.8149 94.5067 98.9406" stroke="currentColor" stroke-width="3" stroke-linecap="round"/>
<path d="M27.1924 87.4526C24.432 87.9835 21.4721 90.0246 19.1308 91.4946C17.1554 92.735 15.1707 93.9421 13.2862 95.3127" stroke="currentColor" stroke-width="3" stroke-linecap="round"/>
<path d="M7.44159 76.3682H19.1309" stroke="currentColor" stroke-width="3" stroke-linecap="round"/>
<path d="M16.3093 58.2294C11.6248 58.2294 6.40419 58.1772 2 56.4155" stroke="currentColor" stroke-width="3" stroke-linecap="round"/>
<path d="M16.5108 32.6339C12.3201 32.6339 8.89745 31.4473 5.22461 29.6108" stroke="currentColor" stroke-width="3" stroke-linecap="round"/>
<path d="M32.6341 12.8832C30.5925 12.8832 28.408 11.2609 26.7222 10.2632C25.4027 9.48225 23.6511 8.50674 23.1617 7.03857" stroke="currentColor" stroke-width="3" stroke-linecap="round"/>
<path d="M53.7957 11.2708C53.7957 9.17332 53.7957 7.07582 53.7957 4.97831C53.7957 4.14188 53.5053 2.73792 53.9972 2" stroke="currentColor" stroke-width="3" stroke-linecap="round"/>
<defs>
<filter id="filter0_d_636_36" x="34.0136" y="53.7754" width="44.0993" height="57.7612" filterUnits="userSpaceOnUse" color-interpolation-filters="sRGB">
<feFlood flood-opacity="0" result="BackgroundImageFix"/>
<feColorMatrix in="SourceAlpha" type="matrix" values="0 0 0 0 0 0 0 0 0 0 0 0 0 0 0 0 0 0 127 0" result="hardAlpha"/>
<feOffset dx="4" dy="4"/>
<feGaussianBlur stdDeviation="2"/>
<feComposite in2="hardAlpha" operator="out"/>
<feColorMatrix type="matrix" values="0 0 0 0 0.869368 0 0 0 0 0.510316 0 0 0 0 0.0888188 0 0 0 0.25 0"/>
<feBlend mode="normal" in2="BackgroundImageFix" result="effect1_dropShadow_636_36"/>
<feBlend mode="normal" in="SourceGraphic" in2="effect1_dropShadow_636_36" result="shape"/>
</filter>
</defs>
</svg>
