<svg width="138" height="120" viewBox="0 0 138 120" fill="none" xmlns="http://www.w3.org/2000/svg" id="logo">
<path fill-rule="evenodd" clip-rule="evenodd" d="M9.06323 57.2207C10.5153 25.3738 36.7945 0 69 0V10C42.5381 10 20.8773 30.5565 19.1157 56.5717C19.039 57.7045 19 58.8477 19 60C19 60.7591 19.0169 61.5143 19.0504 62.2652C18.396 62.0922 17.7088 62 17 62C12.5817 62 9 65.5817 9 70C9 74.4183 12.5817 78 17 78C18.7839 78 20.4314 77.4161 21.7618 76.4291C22.5099 78.5804 23.4009 80.6649 24.4233 82.6712C32.689 98.8911 49.5472 110 69 110V120C45.1777 120 24.598 106.117 14.9105 85.9997H14.9112C6.66778 85.9519 0 79.2546 0 71C0 64.8246 3.73177 59.5208 9.06323 57.2207ZM128.937 57.2207C127.485 25.3738 101.206 0 69 0V10C95.4619 10.0001 117.123 30.5565 118.884 56.5717C118.961 57.7045 119 58.8477 119 60C119 60.7591 118.983 61.5143 118.949 62.2652C119.604 62.0922 120.291 62 121 62C125.418 62 129 65.5817 129 70C129 74.4183 125.418 78 121 78C119.216 78 117.569 77.4161 116.238 76.429C115.49 78.5804 114.599 80.6648 113.577 82.6711C105.311 98.8911 88.4528 110 69 110V120C92.8223 120 113.402 106.117 123.09 85.9997H123.089C131.332 85.9519 138 79.2546 138 71C138 64.8246 134.268 59.5208 128.937 57.2207ZM50.5 58C54.0899 58 57 55.0899 57 51.5C57 47.9101 54.0899 45 50.5 45C46.9101 45 44 47.9101 44 51.5C44 55.0899 46.9101 58 50.5 58ZM95 51.5C95 55.0899 92.0899 58 88.5 58C84.9101 58 82 55.0899 82 51.5C82 47.9101 84.9101 45 88.5 45C92.0899 45 95 47.9101 95 51.5ZM62.0218 62H66C66.0001 64.5246 67.567 66.5712 69.5 66.5712C71.433 66.5712 72.9999 64.5246 73 62H76.9782C76.9926 62.1885 77 62.379 77 62.5712C77 66.6738 73.6421 69.9997 69.5 69.9997C65.3579 69.9997 62 66.6738 62 62.5712C62 62.379 62.0074 62.1885 62.0218 62Z" fill="currentColor"/>
<path fill-rule="evenodd" clip-rule="evenodd" d="M17 32.2315C26.8361 13.074 46.5321 0 69.2259 0C94.1649 0 115.484 15.7892 124.075 38.0898C117.096 43.4454 104.863 44.5159 91.8041 39C90.7748 38.4308 89.7348 37.888 88.6893 37.3674L73.3758 45.5883L73.9454 34.5912C66.8055 37.9691 57.6335 40 47.6293 40C35.4733 40 24.5461 37.0016 17 32.2315Z" fill="currentColor"/>
</svg>
