<svg viewBox="0 0 138 120" fill="none" xmlns="http://www.w3.org/2000/svg">
<path fill-rule="evenodd" clip-rule="evenodd" d="M69 0C36.7945 0 10.5153 25.3738 9.06323 57.2207C3.73178 59.5208 0 64.8246 0 71C0 79.2546 6.66779 85.9519 14.9112 85.9997H14.9105C24.598 106.117 45.1777 120 69 120C92.8223 120 113.402 106.117 123.09 85.9997H123.089C131.332 85.9519 138 79.2546 138 71C138 64.8246 134.268 59.5208 128.937 57.2207C127.675 29.5486 107.669 6.76365 81.3172 1.2655C77.4146 0.435997 73.3703 0 69.2259 0C69.1886 0 69.1513 3.8147e-05 69.114 0.000106812C69.076 3.8147e-05 69.038 0 69 0ZM25.0378 36.1614C21.7013 42.3014 19.6136 49.2185 19.1157 56.5717C19.039 57.7045 19 58.8477 19 60C19 60.7591 19.0169 61.5143 19.0504 62.2652C18.396 62.0922 17.7088 62 17 62C12.5817 62 9 65.5817 9 70C9 74.4183 12.5817 78 17 78C18.7839 78 20.4313 77.4161 21.7618 76.4291C22.5099 78.5804 23.4009 80.6649 24.4233 82.6712C32.689 98.8911 49.5472 110 69 110C88.4528 110 105.311 98.8911 113.577 82.6711C114.599 80.6649 115.49 78.5804 116.238 76.429C117.569 77.4161 119.216 78 121 78C125.418 78 129 74.4183 129 70C129 65.5817 125.418 62 121 62C120.291 62 119.604 62.0922 118.949 62.2652C118.983 61.5143 119 60.7591 119 60C119 58.8477 118.961 57.7045 118.884 56.5717C118.536 51.4309 117.411 46.5033 115.625 41.9053C108.946 43.4359 100.561 42.6988 91.8041 39C90.7748 38.4308 89.7348 37.888 88.6893 37.3674L73.3758 45.5883L73.9454 34.5912C66.8055 37.9691 57.6335 40 47.6292 40C39.2885 40 31.5263 38.5883 25.0378 36.1614ZM57 51.5C57 55.0898 54.0898 58 50.5 58C46.9102 58 44 55.0898 44 51.5C44 47.9102 46.9102 45 50.5 45C54.0898 45 57 47.9102 57 51.5ZM88.5 58C92.0898 58 95 55.0898 95 51.5C95 47.9102 92.0898 45 88.5 45C84.9102 45 82 47.9102 82 51.5C82 55.0898 84.9102 58 88.5 58ZM66 62H62.0219C62.0074 62.1885 62 62.379 62 62.5712C62 66.6738 65.3578 69.9997 69.5 69.9997C73.6422 69.9997 77 66.6738 77 62.5712C77 62.379 76.9926 62.1885 76.9781 62H73C72.9999 64.5246 71.433 66.5712 69.5 66.5712C67.567 66.5712 66.0001 64.5246 66 62Z" fill="currentColor"/>
</svg>
