<svg width="36" height="36" viewBox="0 0 99 110" fill="none" xmlns="http://www.w3.org/2000/svg">
<path fill-rule="evenodd" clip-rule="evenodd" d="M38.0071 0.991666C40.6856 0.453512 43.1807 0.159973 46.373 0.013204C47.3208 -0.0296037 50.666 0.0376655 51.8462 0.129396C62.805 0.961089 73.3235 5.19293 81.567 12.0789C89.358 18.5856 94.7946 26.9943 97.1673 36.2102C98.103 39.8672 98.4638 42.5946 98.5188 46.5146C98.5555 49.1381 98.476 50.6853 98.1947 52.8929C96.8004 63.8823 91.6207 74.2784 83.4872 82.4058C80.4112 85.4757 77.433 87.8913 73.244 90.7105C70.7856 92.3677 69.9783 92.9854 69.0305 93.9394C68.2355 94.7344 67.8441 95.2726 67.4649 96.0737C66.9145 97.2539 66.6577 98.954 66.7983 100.538C66.9023 101.755 67.0063 102.183 67.6239 104.03C67.9419 104.972 68.2538 106.023 68.3272 106.366C68.6146 107.797 68.3883 108.775 67.6728 109.252C66.8289 109.815 65.8015 109.552 64.7803 108.525C63.9669 107.699 63.3615 106.806 62.0345 104.433C60.9215 102.446 60.0164 101.241 58.6343 99.9141C56.9098 98.2569 55.1485 97.2111 52.4578 96.2449C49.9933 95.3643 47.7489 94.8567 42.0922 93.9088C36.356 92.9487 34.24 92.4656 31.1946 91.426C17.7102 86.815 7.36292 76.6329 2.62961 63.3258C1.24754 59.4486 0.403613 55.3513 0.0733827 50.9177C-0.0244634 49.6212 -0.0244634 45.9826 0.0733827 44.68C0.50146 38.8826 1.80404 33.4827 4.01169 28.3519C10.1454 14.0786 22.5719 4.07994 38.0071 0.991666ZM83.0897 16.3657C74.6566 8.07328 63.0252 2.93024 51.1735 2.24532C47.7978 2.04963 44.7157 2.1597 41.5418 2.58167C26.3818 4.59363 13.7413 13.4976 7.05715 26.872C4.56819 31.8499 2.88646 37.7329 2.34219 43.3346C2.05477 46.3495 2.07923 49.7986 2.40946 52.7829C3.38792 61.6624 7.03269 69.9854 12.8851 76.7246C13.674 77.6358 15.5575 79.5438 16.5299 80.4183C22.1132 85.4451 29.2254 89.096 36.6189 90.7227C38.0438 91.0407 39.0712 91.2242 42.826 91.8541C48.1709 92.753 50.5498 93.2912 53.0693 94.184C57.3317 95.7006 60.0653 97.7187 62.591 101.223C62.9885 101.773 63.1903 102.103 64.2971 104.06C65.1411 105.559 66.248 107.179 66.248 106.922C66.248 106.739 65.9238 105.663 65.4896 104.409C64.7986 102.415 64.6335 101.48 64.6335 99.6879C64.6396 98.4954 64.7008 97.8961 64.9332 96.9176C65.3673 95.1013 66.1256 93.7804 67.5505 92.3616C68.584 91.3281 69.7215 90.472 72.5162 88.6068C77.4269 85.3351 81.8422 81.409 85.2362 77.3056C90.9174 70.438 94.7212 62.0171 95.932 53.6084C97.4853 42.8576 95.1798 32.651 89.1868 23.6859C87.395 21.0073 85.5298 18.7691 83.0897 16.3657ZM48.4997 7.06354C43.6685 7.406 39.1065 8.9532 35.3944 11.4972C33.3274 12.916 31.346 14.8545 29.9273 16.842C27.738 19.9181 26.2825 24.1132 25.2368 30.3876C25.1206 31.0909 24.8821 32.6075 24.7108 33.7511C24.5457 34.8947 24.3011 36.4724 24.1788 37.2491C23.9953 38.4477 23.9709 38.7107 24.0259 38.9063C24.1177 39.2121 24.876 39.9827 25.1817 40.0866C25.4997 40.1906 27.1509 40.1172 29.0528 39.9215C30.2575 39.7992 31.0892 39.7564 33.3152 39.7136C36.3117 39.6524 37.2596 39.5913 38.3482 39.4017C39.6752 39.1693 40.7515 38.6984 41.0389 38.2337C41.2896 37.8178 41.253 37.3408 40.9472 36.9678L40.7943 36.7904L40.886 35.5735C41.1979 31.5006 41.3692 30.3081 41.8462 28.9505C42.525 27.0242 43.6502 25.7766 45.387 25.0244C46.2492 24.6575 46.818 24.5352 47.827 24.4985C49.1907 24.4557 50.1142 24.6575 51.4228 25.2813C54.291 26.645 56.89 29.6782 57.5688 32.4363C57.8501 33.5798 57.8318 34.9375 57.5138 36.026C57.3181 36.7048 56.8472 37.6955 56.4375 38.2887C55.6853 39.3834 54.1992 40.6982 53.0251 41.2975C51.9427 41.854 51.111 42.1475 48.4997 42.8936C45.9679 43.6152 44.6776 44.0677 43.6074 44.6059C42.3048 45.2602 41.1306 46.257 40.4518 47.2844C39.8097 48.2445 39.2716 49.804 39.1126 51.1555C39.0759 51.4368 39.0453 51.5163 38.9291 51.5652C38.7212 51.663 38.3543 52.0055 38.2503 52.1951C38.1219 52.4519 38.1402 52.9106 38.3053 53.198C38.4215 53.4059 38.5622 53.516 38.9475 53.6934C38.9596 53.6994 38.9896 54.1602 39.0258 54.7147L39.0258 54.715L39.027 54.733C39.0575 55.3017 39.1065 55.9744 39.1432 56.2251C39.3388 57.7173 39.559 59.1055 39.8525 60.7627C40.036 61.7962 40.1828 62.6891 40.1828 62.7563C40.1828 62.8297 40.0482 62.9643 39.822 63.1294C39.2716 63.5147 39.0698 64.0467 39.2899 64.5604C39.3878 64.805 39.6813 65.0557 39.9626 65.1536C40.1216 65.2025 40.2072 65.2881 40.3051 65.496C40.4641 65.8263 40.6965 65.9975 41.0695 66.0648C41.4609 66.1382 46.4571 65.7835 48.4691 65.5388C49.0317 65.4716 49.9552 65.441 51.6308 65.4288C52.9333 65.4165 54.242 65.3799 54.5478 65.3432C56.2907 65.1291 57.6789 64.4136 58.2782 63.4168C58.7307 62.6585 58.8286 61.6372 58.5595 60.3836C58.48 59.9983 58.3027 59.2584 58.162 58.7385C57.8501 57.5583 57.7523 56.9406 57.6728 55.6747C57.6055 54.6412 57.6789 52.2746 57.7767 52.189C57.8003 52.1654 58.2596 51.9778 58.8009 51.7566L58.801 51.7566L58.8653 51.7303C64.3508 49.5471 68.2035 46.4711 70.5151 42.441C72.1662 39.5668 73.1019 35.9526 73.2609 31.8553C73.5422 24.6208 71.1083 17.8511 66.6012 13.3563C62.1615 8.9165 55.4162 6.57431 48.4997 7.06354ZM42.9041 10.4148C42.8613 10.5615 42.6106 10.6227 42.2008 10.5921L41.9257 10.5738L42.4149 10.4148C42.684 10.323 42.9163 10.2619 42.9225 10.2741C42.9347 10.2802 42.9286 10.3475 42.9041 10.4148ZM58.2537 10.5432C58.3638 10.5921 58.3577 10.5982 58.2109 10.5982C58.1131 10.6044 58.0397 10.5738 58.0397 10.5432C58.0397 10.4698 58.0886 10.4698 58.2537 10.5432ZM36.8988 13.289C36.8499 13.6559 36.9294 13.9495 37.1434 14.1941C37.4125 14.4999 37.5898 14.5549 38.5561 14.6466L39.4 14.7261L38.4277 14.8362C36.8621 15.0074 35.3761 15.3071 34.098 15.7046C33.835 15.7902 33.5965 15.8452 33.5843 15.8269C33.5415 15.7841 34.2753 15.1053 35.0764 14.4326C35.5962 13.9984 36.856 13.0505 36.911 13.0505C36.9233 13.0505 36.9172 13.1606 36.8988 13.289ZM32.5508 17.4658C32.5263 17.4842 32.3979 17.527 32.2633 17.5514L32.0248 17.5942L32.2328 17.3313L32.4407 17.0683L32.5141 17.2457C32.5569 17.3435 32.5691 17.4413 32.5508 17.4658ZM61.1891 17.1478C61.2686 17.1845 61.1218 17.2029 60.7488 17.2029C60.4369 17.209 60.1678 17.1845 60.1495 17.1478C60.1006 17.0744 61.0118 17.0744 61.1891 17.1478ZM66.6624 17.6065C67.1394 17.8572 67.7937 18.9335 68.283 20.2667C68.4542 20.7498 68.8028 21.8505 68.8028 21.9362C68.8028 21.9606 68.711 21.9178 68.6071 21.8322C68.497 21.7527 68.3319 21.6671 68.2463 21.6426C68.0873 21.6059 68.0812 21.5937 68.1117 21.2451C68.1423 20.9516 68.124 20.8476 68.0078 20.6458C67.8671 20.4012 67.5552 20.1382 67.1638 19.9364L66.962 19.8325L67.1394 19.6245C67.647 19.0497 67.5002 18.3464 66.7663 17.8633C66.5768 17.7349 66.3811 17.6187 66.3322 17.6003C66.2771 17.582 66.2343 17.5392 66.2343 17.5025C66.2343 17.4413 66.4239 17.4842 66.6624 17.6065ZM30.3064 20.7498C30.3248 20.7865 30.282 20.9027 30.2147 21.0127C30.1474 21.1228 30.0924 21.3185 30.0924 21.4408C30.0924 21.5692 30.074 21.6732 30.0496 21.6732C30.019 21.6732 29.9334 21.6915 29.8539 21.716C29.7255 21.7466 29.7193 21.7344 29.756 21.612C29.7805 21.5325 29.8783 21.294 29.9762 21.08C30.1413 20.7131 30.2269 20.6275 30.3064 20.7498ZM49.998 21.0861C50.1325 21.1778 50.3588 21.2573 50.5667 21.2818C50.7563 21.3063 53.1841 21.3002 55.9605 21.2757C62.718 21.2023 63.8677 21.2023 64.3691 21.2696L64.7972 21.3246L63.6047 21.4653C62.9503 21.5387 61.8496 21.6732 61.1585 21.7649C60.0027 21.9178 59.8009 21.93 58.5595 21.8934C56.9145 21.8505 55.6302 21.7649 54.0525 21.612C52.6153 21.4653 50.9764 21.4469 50.6829 21.5753C50.4138 21.6854 50.1019 22.0523 50.053 22.3153C50.0347 22.4315 50.0102 22.5294 50.0041 22.5294C49.9976 22.5294 49.9168 22.5173 49.7921 22.4986C49.6821 22.4821 49.5379 22.4605 49.3803 22.4376C49.0501 22.3887 48.4752 22.3459 48.1083 22.3459C47.4784 22.3459 47.4478 22.3398 47.5335 22.2358C47.7475 21.9912 47.8087 21.5142 47.6741 21.1656C47.6374 21.0739 47.6802 21.0617 48.1083 21.0555C48.3774 21.0494 48.7993 21.025 49.0501 21.0005C49.2389 20.9821 49.4381 20.9671 49.5563 20.9583L49.5566 20.9582C49.5952 20.9553 49.6252 20.9531 49.6433 20.9516C49.7167 20.9455 49.8757 21.0066 49.998 21.0861ZM69.1391 23.4344C69.1269 23.4405 69.0535 23.4161 68.9618 23.3794C68.8517 23.3244 68.8089 23.2754 68.8395 23.2082C68.8542 23.164 68.8886 23.0725 68.9206 22.9875L68.9434 22.9268C68.9722 22.8484 68.9886 22.8035 69.0033 22.8041C69.023 22.8049 69.0394 22.8872 69.078 23.0797C69.1147 23.2632 69.1452 23.4222 69.1391 23.4344ZM43.3628 23.6485C43.0753 23.8258 43.0203 23.838 42.9836 23.7585C42.8797 23.5139 42.9469 23.4711 43.4545 23.4528L43.6991 23.4467L43.3628 23.6485ZM28.9916 24.0215C28.9916 24.0399 28.9672 24.0704 28.9305 24.0888C28.8999 24.1071 28.8693 24.0949 28.8693 24.0643C28.8693 24.0276 28.8999 23.997 28.9305 23.997C28.9672 23.997 28.9916 24.0093 28.9916 24.0215ZM66.5707 24.7982H66.693L66.5707 24.8532C66.5034 24.8838 66.2282 24.9021 65.9591 24.9021L65.4699 24.896L65.8368 24.8226C66.0386 24.7798 66.2588 24.7554 66.326 24.7676C66.3933 24.7798 66.5034 24.792 66.5707 24.7982ZM65.3965 24.9572C65.3537 24.9694 65.2681 24.9694 65.213 24.9572C65.1519 24.9388 65.1886 24.9266 65.2864 24.9266C65.3904 24.9266 65.4332 24.9388 65.3965 24.9572ZM41.3019 25.4647C41.0512 25.7766 40.9288 25.8867 40.8616 25.8561C40.5864 25.746 40.2867 25.7155 39.0514 25.6849C38.3115 25.6665 37.3513 25.6115 36.911 25.5626C35.798 25.428 34.4282 25.1957 34.6483 25.1712C35.3516 25.1039 37.2046 25.055 39.2471 25.0428L41.6505 25.0367L41.3019 25.4647ZM63.3784 25.0795C63.2989 25.0917 63.1644 25.0917 63.0727 25.0795C62.9748 25.0672 63.0421 25.055 63.2072 25.055C63.3784 25.055 63.4518 25.0672 63.3784 25.0795ZM56.9022 25.6849C56.7738 25.85 56.7249 25.9907 56.7065 26.2536L56.6821 26.6022L56.15 26.0763L56.116 26.0432C55.8361 25.7717 55.6918 25.6317 55.7201 25.5583C55.7502 25.48 55.9762 25.4773 56.4427 25.4715L56.4986 25.4708L57.0673 25.4647L56.9022 25.6849ZM28.747 26.4249L29.1873 26.645L28.6553 26.8223C28.3556 26.9141 28.111 26.9875 28.0988 26.9752C28.0804 26.9569 28.2639 26.1986 28.2883 26.1986C28.3006 26.1986 28.5085 26.2964 28.747 26.4249ZM58.3271 27.4217H59.0304L58.8408 27.6357C58.4617 28.0699 58.4617 28.608 58.8408 29.0361C59.1282 29.3664 60.174 29.825 61.342 30.1369C61.5805 30.198 61.6294 30.2225 61.5071 30.2286C60.9262 30.247 59.7887 30.62 59.4952 30.8891C59.3973 30.9747 59.3851 30.9747 59.33 30.8402C58.8102 29.5804 58.3699 28.7732 57.6972 27.8742C57.4832 27.5868 57.3058 27.336 57.3058 27.3238C57.3058 27.3116 57.3792 27.3299 57.4648 27.3605C57.5505 27.3972 57.9357 27.4217 58.3271 27.4217ZM39.9259 27.9843C39.9076 28.0271 39.8464 28.2044 39.7914 28.3818C39.6935 28.6692 39.6752 28.6937 39.5529 28.6509C39.4795 28.6203 38.8985 28.5836 38.2564 28.5591C36.9538 28.5102 34.9786 28.3512 34.9113 28.2839C34.8868 28.2595 35.6574 28.18 36.6236 28.1066C37.1649 28.062 37.6716 28.0194 38.0277 27.9895C38.3073 27.966 38.494 27.9503 38.5316 27.9476C38.6172 27.9354 38.9719 27.9231 39.3205 27.917C39.8036 27.9109 39.9443 27.9292 39.9259 27.9843ZM69.3165 29.8923L69.2737 31.3294L69.0168 31.1826C68.8762 31.097 68.7049 31.0297 68.6315 31.0297C68.4481 31.0297 68.4175 30.9441 68.552 30.779C68.9862 30.2164 69.078 29.5865 68.7844 29.1401C68.6927 28.9994 68.5459 28.8527 68.4664 28.816C68.3808 28.7793 68.3135 28.7303 68.3135 28.712C68.3135 28.6753 69.3042 28.4123 69.3409 28.4368C69.3531 28.4429 69.3409 29.0973 69.3165 29.8923ZM28.3984 29.2257C28.5207 29.2502 28.6247 29.2807 28.6247 29.2991C28.6247 29.3113 28.5635 29.403 28.4902 29.507C28.3923 29.6354 28.3495 29.8005 28.3312 30.0696C28.3128 30.3876 28.3312 30.4793 28.4535 30.6567C28.7653 31.1153 29.0956 31.2315 29.9701 31.1765C30.2881 31.1582 30.6367 31.1704 30.7345 31.201C30.9363 31.256 30.3982 31.2988 28.3678 31.3722L27.2793 31.415V31.2682C27.2793 31.1887 27.3649 30.6383 27.4689 30.0452L27.6646 28.9627L27.9153 29.0728C28.0498 29.134 28.27 29.2073 28.3984 29.2257ZM39.1798 30.9197C39.0698 31.5312 38.8007 34.2403 38.7762 34.9619C38.7701 35.0047 38.7334 34.9497 38.6906 34.8518C38.5805 34.6011 38.2075 34.2831 37.969 34.2403C37.7733 34.2036 37.7672 34.1914 37.7855 33.9345C37.8039 33.7266 37.7733 33.5921 37.6571 33.3842L37.4981 33.109H37.6938C37.9507 33.109 38.3848 32.8888 38.5255 32.6931C38.7334 32.3996 38.7885 32.0694 38.6845 31.7269C38.5805 31.36 38.4399 31.2193 37.914 30.938L37.5226 30.724H38.3726H39.2165L39.1798 30.9197ZM61.0852 33.0906C61.4582 33.109 61.7701 33.1457 61.7701 33.1701C61.7701 33.1946 61.4215 33.2374 60.9934 33.2557C60.5592 33.2802 60.1373 33.3108 60.0455 33.3291C59.8865 33.3597 59.8743 33.3475 59.8743 33.164V32.9683L60.1373 33.0111C60.2779 33.0295 60.706 33.0662 61.0852 33.0906ZM69.1269 33.537C69.078 33.8245 69.029 34.063 69.0168 34.0752C69.0046 34.0874 68.8028 34.063 68.5704 34.0263L68.1423 33.9468L68.497 33.6838C68.6927 33.5432 68.9312 33.3291 69.0229 33.2068C69.1208 33.0906 69.2003 32.9989 69.2064 33.005C69.2125 33.0111 69.1758 33.2496 69.1269 33.537ZM27.1509 35.5735L27.2977 35.6713L27.1203 35.708C27.0225 35.7325 26.8635 35.7753 26.7656 35.8059C26.6678 35.8364 26.5822 35.8548 26.576 35.8487C26.5699 35.8364 26.5944 35.6835 26.625 35.5062L26.68 35.176L26.839 35.3227C26.9307 35.4083 27.0714 35.5184 27.1509 35.5735ZM38.6906 36.2095L38.6888 36.2292L38.6887 36.2296C38.6646 36.489 38.6351 36.8062 38.6172 36.9433L38.5805 37.194L38.2014 37.2613C37.5837 37.3714 37.547 37.3653 37.6265 37.139C37.6632 37.035 37.6755 36.8332 37.6632 36.6926L37.6327 36.4296L37.9507 36.3257C38.1769 36.2584 38.3359 36.1544 38.4827 35.9893C38.5928 35.8548 38.6967 35.7447 38.709 35.7447C38.7212 35.7386 38.709 35.9526 38.6906 36.2095ZM70.3805 37.0779C70.3377 37.2735 70.2888 37.3714 70.2521 37.3347C70.2154 37.298 70.2338 37.1757 70.3072 36.9983C70.3683 36.8516 70.4295 36.7354 70.4417 36.7415C70.4478 36.7537 70.4233 36.9005 70.3805 37.0779ZM69.6834 39.2366C69.5672 39.628 69.0474 40.7226 68.6682 41.3831C67.1822 43.9699 65.158 45.9452 62.1492 47.737C61.7578 47.9632 61.4154 48.1528 61.3787 48.1528C61.342 48.1528 61.9841 47.474 62.8097 46.6362C66.112 43.3094 67.3595 41.8845 68.6254 40.0071C68.9128 39.5852 69.0474 39.4445 69.3042 39.2977C69.7017 39.0715 69.7384 39.0653 69.6834 39.2366ZM49.203 45.7067C49.3008 45.8106 49.2886 45.8167 48.9155 45.8534C47.454 45.9941 46.5489 46.0919 45.9985 46.1653C45.6438 46.2142 45.3136 46.257 45.2647 46.257C44.9956 46.2448 46.9464 45.5599 48.4385 45.1379L48.9583 44.9912L49.0317 45.2908C49.0684 45.4559 49.1479 45.6455 49.203 45.7067ZM42.9958 47.7675C42.9958 47.8287 43.0387 47.9571 43.0876 48.055C43.1426 48.1528 43.1732 48.2384 43.1671 48.2445C43.112 48.2751 42.3537 48.3913 42.3354 48.3669C42.2926 48.3302 42.8674 47.6636 42.9408 47.6636C42.9714 47.6636 42.9958 47.7125 42.9958 47.7675ZM59.0732 48.6115C59.1405 48.7338 59.2811 48.8805 59.3851 48.9356C59.4829 48.9906 59.5685 49.0518 59.5685 49.0701C59.5685 49.1007 59.1527 49.2903 58.1681 49.7L57.5933 49.9385L56.8839 49.8407C56.4925 49.7917 55.9849 49.7306 55.7464 49.7061L55.3183 49.6572L55.5935 49.6083C56.8594 49.3575 58.1131 48.9417 58.6512 48.587C58.7074 48.5511 58.7603 48.5168 58.805 48.4878L58.805 48.4877C58.882 48.4378 58.9348 48.4035 58.9387 48.4035C58.9387 48.3982 58.9849 48.4715 59.0451 48.567L59.0454 48.5674L59.0732 48.6115ZM55.4896 53.9747C55.4712 54.4883 55.4468 54.9164 55.4407 54.9287C55.4284 54.9409 55.3183 54.8981 55.1838 54.8308C55.0554 54.7635 54.7924 54.6596 54.5967 54.5984L54.2482 54.4883L54.4561 54.2743C54.7007 54.0175 54.8964 53.6505 54.9514 53.3387C54.9942 53.1063 55.0554 53.0635 55.3612 53.0512L55.5202 53.0451L55.4896 53.9747ZM50.5789 53.5955C50.0102 53.6995 47.0381 53.9196 44.861 54.0236C43.0448 54.1092 41.6749 54.2437 41.2713 54.366C41.1796 54.3905 41.1612 54.3599 41.1612 54.1826V53.9624H41.7605C43.3138 53.9685 46.9097 53.7851 49.5087 53.5772C49.6433 53.5649 50.0041 53.5527 50.3037 53.5527C50.7563 53.5527 50.8052 53.5588 50.5789 53.5955ZM55.6547 57.228C55.6547 57.2709 55.673 57.4054 55.6914 57.5155L55.7342 57.7234L55.5385 57.546C55.3612 57.3748 55.355 57.3565 55.4529 57.2525C55.5691 57.1241 55.6547 57.1119 55.6547 57.228ZM56.4191 60.6282C56.7188 61.9185 56.5842 62.42 55.8259 62.8053C55.5568 62.9398 54.8597 63.16 54.823 63.1172C54.8108 63.1049 54.8291 62.9949 54.8658 62.8725C54.9759 62.4567 54.719 61.9247 54.291 61.6862C54.1809 61.6311 54.187 61.6189 54.3154 61.3987C54.4316 61.1969 54.45 61.0807 54.45 60.5426C54.4438 60.194 54.4133 59.8577 54.3766 59.7843C54.3154 59.6681 54.3399 59.6497 54.6457 59.5335C55.3795 59.2584 55.7281 58.9893 55.8198 58.6223C55.8504 58.4878 55.8993 58.6101 56.0644 59.2217C56.1806 59.6436 56.3396 60.2735 56.4191 60.6282ZM51.2127 69.0503C50.4605 69.1359 49.3658 69.3928 48.6992 69.6374C46.4121 70.4874 44.9505 71.9062 44.3329 73.8693C44.0454 74.7804 43.972 75.3736 44.0087 76.5661C44.0515 77.9176 44.2472 78.9878 44.6937 80.2904C44.816 80.6634 44.8465 80.8653 44.8465 81.3912C44.8527 83.9413 45.9901 86.4547 47.7942 87.9102C48.6748 88.6196 50.2709 89.2861 51.0842 89.2861C51.2494 89.2861 51.3472 89.3289 51.4573 89.4451C51.8548 89.8793 52.5152 89.8854 52.9494 89.4696C53.1023 89.3228 53.2369 89.2739 53.6833 89.1944C55.0348 88.9559 56.4046 88.4973 57.6583 87.8613C57.9274 87.7267 58.386 87.5494 58.6734 87.476C60.8933 86.9073 62.2937 85.6108 63.0092 83.4888C63.2906 82.6448 63.4006 81.9171 63.4006 80.8469C63.4006 79.7889 63.3334 79.2508 63.0643 78.2234C62.624 76.5111 61.829 75.0618 60.7466 74.0221C60.508 73.7898 59.9882 73.1721 59.5969 72.6523C58.1903 70.7871 57.2547 70.0655 55.4873 69.4784C54.3009 69.087 52.4969 68.9036 51.2127 69.0503ZM53.2002 71.1907C54.0686 71.2763 54.8635 71.4843 55.5179 71.79C55.8053 71.9246 56.0377 72.0408 56.0377 72.053C56.0377 72.0652 55.6586 72.0652 55.1999 72.053C53.561 72.0102 52.1361 72.2854 50.595 72.9397C49.9223 73.2271 49.0478 73.7164 48.5769 74.0711C48.424 74.1811 48.1366 74.3829 47.9409 74.5175C47.4517 74.8477 46.7484 75.5143 46.406 75.9668L46.1308 76.3338V76.0035C46.1308 75.3553 46.3448 74.4258 46.62 73.8754C46.8279 73.4595 47.2927 72.9091 47.7024 72.5911C48.6075 71.894 50.1058 71.3314 51.4328 71.1968C52.2034 71.1173 52.448 71.1173 53.2002 71.1907ZM60.0616 77.2816C60.508 78.1439 60.6059 78.5414 60.6487 79.5933L60.6793 80.3271L60.5937 79.6911C60.3919 78.2234 60.0188 77.3367 58.967 75.8629C58.8936 75.7589 59.0281 75.8751 59.2544 76.1075C59.5846 76.4438 59.762 76.7007 60.0616 77.2816ZM50.4421 77.0676C50.2036 77.2388 49.5493 77.8993 49.4209 78.095L49.3169 78.2479V78.0522C49.3108 77.777 49.6532 77.4039 50.1608 77.1471C50.6317 76.9025 50.6929 76.8903 50.4421 77.0676ZM58.2515 78.9389C58.5572 79.8073 58.5205 80.7796 58.1536 81.5502C57.9641 81.9477 57.4626 82.6571 57.4076 82.602C57.3953 82.5898 57.4504 82.4186 57.536 82.229C58.0313 81.1099 58.1597 79.4526 57.8417 78.2785C57.7928 78.095 57.75 77.9299 57.7561 77.9115C57.7561 77.8443 58.1475 78.6393 58.2515 78.9389ZM52.0321 78.9573C51.5674 79.5871 51.2188 80.4249 51.2004 80.9386L51.1943 81.1221L51.1026 80.9081C50.9497 80.5656 50.9619 79.7767 51.127 79.4709C51.286 79.1713 51.5857 78.8839 51.9098 78.7188C52.3012 78.5169 52.3257 78.5598 52.0321 78.9573ZM53.9952 80.2048C53.8423 80.3883 53.6894 80.6451 53.6466 80.7796C53.6038 80.9264 53.5304 81.0304 53.4631 81.0487C53.3959 81.0671 53.3469 81.0548 53.3469 81.0181C53.3469 80.8958 53.7261 80.2415 53.9095 80.058C54.2276 79.7339 54.2887 79.844 53.9952 80.2048ZM57.5666 85.1521C57.5666 85.2194 56.955 85.5558 56.8266 85.5558C56.7226 85.5496 56.8082 85.4885 57.1079 85.3417C57.5691 85.1196 57.5691 85.1202 57.5669 85.1461C57.5667 85.148 57.5666 85.15 57.5666 85.1521Z" fill="black"/>
</svg>
