<svg viewBox="0 0 102 114" fill="none" xmlns="http://www.w3.org/2000/svg">
<path fill-rule="evenodd" clip-rule="evenodd" d="M39.3467 1.03202C42.1197 0.471964 44.7027 0.166479 48.0075 0.013737C48.9888 -0.0308127 52.4518 0.0391916 53.6736 0.134655C65.0187 1.00019 75.9079 5.40425 84.442 12.5704C92.5076 19.3419 98.1358 28.0928 100.592 37.6837C101.561 41.4895 101.934 44.3279 101.991 48.4074C102.029 51.1377 101.947 52.7478 101.656 55.0453C100.212 66.4819 94.85 77.3011 86.4299 85.7592C83.2454 88.954 80.1623 91.4679 75.8256 94.4018C73.2805 96.1265 72.4449 96.7693 71.4636 97.7621C70.6405 98.5895 70.2354 99.1495 69.8428 99.9832C69.2851 101.185 69.0186 102.906 69.1441 104.524C69.2562 104.916 69.409 105.387 69.6239 106.03C69.9419 106.972 70.2538 108.023 70.3272 108.366C70.4226 108.841 70.4614 109.266 70.4445 109.639C70.5867 110.113 70.6954 110.506 70.7355 110.694C71.0331 112.183 70.7988 113.202 70.0581 113.698C69.1844 114.284 68.1208 114.01 67.0636 112.941C66.2216 112.082 65.5948 111.152 64.221 108.683C63.0687 106.615 62.1318 105.361 60.701 103.98C58.9157 102.255 57.0923 101.167 54.3067 100.161C51.7554 99.245 49.4319 98.7168 43.5758 97.7303C37.6374 96.7311 35.4469 96.2283 32.2941 95.1464C18.3344 90.3478 7.62244 79.7513 2.7223 65.9027C1.29151 61.8678 0.417841 57.6038 0.0759711 52.9897C-0.0253237 51.6405 -0.0253237 47.8537 0.0759711 46.4982C0.519136 40.4649 1.86762 34.8452 4.15309 29.5056C10.503 14.6515 23.3675 4.24596 39.3467 1.03202ZM66.9253 104.554C66.9735 105.828 67.1602 106.748 67.6613 108.255C67.2697 107.69 66.7462 106.858 66.2971 106.06C65.1903 104.103 64.9885 103.773 64.591 103.223C62.0653 99.7187 59.3317 97.7006 55.0693 96.184C52.5498 95.2912 50.1709 94.753 44.826 93.8541C41.0712 93.2242 40.0438 93.0407 38.6189 92.7227C31.2254 91.096 24.1132 87.4451 18.5299 82.4183C17.5575 81.5438 15.674 79.6358 14.8851 78.7246C9.03269 71.9855 5.38792 63.6624 4.40946 54.7829C4.07923 51.7986 4.05477 48.3495 4.34219 45.3346C4.88646 39.7329 6.56819 33.8499 9.05715 28.872C15.7413 15.4976 28.3818 6.59364 43.5418 4.58168C46.7157 4.15971 49.7978 4.04964 53.1735 4.24533C65.0252 4.93026 76.6566 10.0733 85.0897 18.3658C87.5298 20.7691 89.395 23.0073 91.1868 25.6859C97.1798 34.651 99.4853 44.8576 97.932 55.6084C96.7212 64.0171 92.9174 72.438 87.2362 79.3056C83.8422 83.409 79.4269 87.3351 74.5162 90.6068C71.7215 92.472 70.584 93.3281 69.5505 94.3616C68.1256 95.7804 67.3673 97.1013 66.9332 98.9176C66.7008 99.8961 66.6396 100.495 66.6335 101.688C66.6335 102.825 66.7 103.618 66.9253 104.554ZM40.4794 17.8828C43.5676 15.6865 47.3629 14.3508 51.3821 14.0552C57.1362 13.6328 62.7478 15.6548 66.4414 19.4877C70.1909 23.3682 72.2158 29.2125 71.9817 35.4582C71.8495 38.9954 71.0711 42.1156 69.6974 44.5969C67.7743 48.0761 64.5691 50.7317 60.0056 52.6165L59.9521 52.6391L59.9513 52.6395C59.5013 52.8302 59.1195 52.9921 59.1 53.0124C59.0186 53.0863 58.9575 55.1295 59.0135 56.0217C59.0796 57.1146 59.161 57.6478 59.4205 58.6667C59.5375 59.1155 59.685 59.7543 59.7512 60.0869C59.975 61.1692 59.8936 62.0509 59.5172 62.7055C59.0186 63.5661 57.8637 64.1838 56.4137 64.3686C56.1593 64.4002 55.0706 64.4319 53.9869 64.4425C52.5929 64.453 51.8247 64.4794 51.3567 64.5375C49.6828 64.7487 45.5263 65.0549 45.2007 64.9915C44.8903 64.9335 44.697 64.7856 44.5647 64.5006C44.4833 64.3211 44.4121 64.2471 44.2798 64.2049C44.0458 64.1204 43.8016 63.904 43.7202 63.6928C43.537 63.2493 43.7049 62.79 44.1628 62.4574C44.351 62.3149 44.463 62.1987 44.463 62.1353C44.463 62.0773 44.3409 61.3065 44.1882 60.4142C43.944 58.9835 43.7609 57.7851 43.5981 56.4969C43.5676 56.2804 43.5269 55.6997 43.5014 55.2087L43.5004 55.1925C43.4703 54.714 43.4453 54.3164 43.4353 54.3112C43.1148 54.1581 42.9977 54.063 42.9011 53.8835C42.7637 53.6354 42.7485 53.2394 42.8553 53.0177C42.9418 52.854 43.247 52.5584 43.42 52.4739C43.5167 52.4317 43.5421 52.363 43.5726 52.1202C43.7049 50.9534 44.1526 49.6072 44.6868 48.7783C45.2516 47.8913 46.2284 47.0308 47.312 46.4659C48.2024 46.0013 49.2758 45.6106 51.3821 44.9876C53.5545 44.3435 54.2464 44.0901 55.1469 43.6097C56.1237 43.0923 57.36 41.9572 57.9858 41.0122C58.3267 40.5001 58.7184 39.6448 58.8812 39.0588C59.1458 38.119 59.161 36.947 58.927 35.9597C58.3623 33.5787 56.2 30.96 53.814 29.7827C52.7252 29.2442 51.957 29.07 50.8225 29.1069C49.983 29.1386 49.5099 29.2442 48.7925 29.561C47.3476 30.2104 46.4115 31.2874 45.8468 32.9504C45.45 34.1224 45.3075 35.1519 45.048 38.6681L44.9717 39.7187L45.0989 39.8718C45.3533 40.1938 45.3838 40.6056 45.1752 40.9646C44.9361 41.3659 44.0407 41.7724 42.9367 41.973C42.0311 42.1367 41.2425 42.1895 38.7496 42.2423C36.8977 42.2792 36.2058 42.3162 35.2036 42.4218C33.6213 42.5907 32.2477 42.6541 31.9831 42.5643C31.7287 42.4746 31.0979 41.8094 31.0216 41.5454C30.9758 41.3764 30.9961 41.1494 31.1488 40.1147C31.2505 39.4442 31.454 38.0821 31.5914 37.0948C31.7338 36.1075 31.9322 34.7982 32.0289 34.1911C32.8989 28.7743 34.1097 25.1526 35.9311 22.497C37.1114 20.7812 38.7598 19.1076 40.4794 17.8828ZM46.1419 17.1014C46.4827 17.1278 46.6913 17.075 46.727 16.9483C46.7473 16.8902 46.7524 16.8322 46.7422 16.8269C46.7371 16.8163 46.5438 16.8691 46.3199 16.9483L45.9129 17.0856L46.1419 17.1014ZM59.4612 17.1067C59.5833 17.1067 59.5884 17.1014 59.4968 17.0592C59.3594 16.9958 59.3187 16.9958 59.3187 17.0592C59.3187 17.0856 59.3798 17.112 59.4612 17.1067ZM41.9344 20.211C41.7564 19.9998 41.6902 19.7464 41.7309 19.4297C41.7462 19.3188 41.7513 19.2238 41.7411 19.2238C41.6953 19.2238 40.6473 20.0421 40.2148 20.4169C39.5484 20.9977 38.9379 21.5837 38.9735 21.6206C38.9836 21.6365 39.1821 21.589 39.4008 21.5151C40.4641 21.1719 41.7004 20.9132 43.0028 20.7654L43.8118 20.6703L43.1097 20.6017C42.3058 20.5225 42.1583 20.475 41.9344 20.211ZM37.8745 23.1095C37.9865 23.0883 38.0933 23.0514 38.1137 23.0355C38.1289 23.0144 38.1188 22.93 38.0831 22.8455L38.0221 22.6924L37.8491 22.9194L37.6761 23.1464L37.8745 23.1095ZM61.5725 22.8085C61.8829 22.8085 62.005 22.7927 61.9388 22.761C61.7913 22.6977 61.0333 22.6977 61.074 22.761C61.0892 22.7927 61.3131 22.8138 61.5725 22.8085ZM67.8404 25.4535C67.4334 24.3026 66.8891 23.3734 66.4922 23.157C66.2938 23.0514 66.1361 23.0144 66.1361 23.0672C66.1361 23.0989 66.1717 23.1359 66.2175 23.1517C66.2582 23.1675 66.421 23.2678 66.5787 23.3787C67.1892 23.7958 67.3113 24.4029 66.8891 24.8992L66.7415 25.0787L66.9094 25.1685C67.235 25.3427 67.4945 25.5697 67.6115 25.7809C67.7082 25.9551 67.7234 26.0448 67.698 26.2983C67.6726 26.5992 67.6776 26.6098 67.8099 26.6414C67.8811 26.6625 68.0185 26.7365 68.1101 26.8051C68.1966 26.879 68.2729 26.916 68.2729 26.8948C68.2729 26.8209 67.9829 25.8706 67.8404 25.4535ZM36.1702 26.0976C36.2262 26.0026 36.2618 25.9023 36.2465 25.8706C36.1804 25.765 36.1092 25.8389 35.9718 26.1557C35.8904 26.3405 35.809 26.5464 35.7886 26.615C35.7581 26.7206 35.7632 26.7312 35.87 26.7048C35.9362 26.6837 36.0074 26.6678 36.0328 26.6678C36.0532 26.6678 36.0685 26.5781 36.0685 26.4672C36.0685 26.3616 36.1142 26.1927 36.1702 26.0976ZM53.1017 26.3299C52.9287 26.3088 52.7405 26.2402 52.6286 26.161C52.5268 26.0924 52.3945 26.0396 52.3335 26.0448C52.3184 26.0462 52.2934 26.0481 52.2612 26.0506L52.2611 26.0506L52.2608 26.0506L52.2605 26.0507C52.1621 26.0583 51.9967 26.0712 51.84 26.0871C51.6314 26.1082 51.2803 26.1293 51.0565 26.1346C50.7004 26.1399 50.6647 26.1504 50.6953 26.2296C50.8072 26.5306 50.7563 26.9424 50.5783 27.1535C50.507 27.2433 50.5325 27.2486 51.0565 27.2486C51.3617 27.2486 51.84 27.2855 52.1147 27.3278C52.2459 27.3476 52.3659 27.3662 52.4574 27.3804L52.4575 27.3804C52.5611 27.3965 52.6282 27.407 52.6336 27.407C52.6387 27.407 52.6591 27.3225 52.6743 27.2222C52.715 26.9952 52.9745 26.6784 53.1984 26.5834C53.4426 26.4725 54.806 26.4883 56.0016 26.615C57.3142 26.747 58.3826 26.8209 59.7512 26.8579C60.784 26.8896 60.9519 26.879 61.9134 26.747C62.4883 26.6678 63.4041 26.5517 63.9484 26.4883L64.9405 26.3669L64.5844 26.3194C64.1672 26.2613 63.2107 26.2613 57.589 26.3247C55.2792 26.3458 53.2594 26.3511 53.1017 26.3299ZM68.4052 28.1408C68.4815 28.1725 68.5425 28.1936 68.5527 28.1883C68.5578 28.1778 68.5324 28.0405 68.5018 27.8821V27.882L68.5018 27.882C68.4698 27.7158 68.4561 27.6448 68.4397 27.6441C68.4275 27.6437 68.4138 27.6824 68.3899 27.7501L68.371 27.8024L68.3707 27.8033L68.3702 27.8044C68.3438 27.8772 68.3156 27.9552 68.3034 27.993C68.278 28.051 68.3136 28.0933 68.4052 28.1408ZM46.7931 28.4681C46.8236 28.5368 46.8694 28.5262 47.1085 28.3731L47.3883 28.1989L47.1848 28.2042C46.7626 28.22 46.7066 28.2569 46.7931 28.4681ZM35.1018 28.7532C35.1323 28.7374 35.1527 28.711 35.1527 28.6951C35.1527 28.6846 35.1323 28.674 35.1018 28.674C35.0764 28.674 35.0509 28.7004 35.0509 28.7321C35.0509 28.7585 35.0764 28.7691 35.1018 28.7532ZM66.5177 29.3656H66.4159C66.36 29.3604 66.2684 29.3498 66.2124 29.3392C66.1565 29.3287 65.9733 29.3498 65.8054 29.3868L65.5002 29.4501L65.9072 29.4554C66.131 29.4554 66.36 29.4396 66.4159 29.4132L66.5177 29.3656ZM65.2865 29.5029C65.3323 29.5135 65.4035 29.5135 65.4391 29.5029C65.4696 29.4871 65.434 29.4765 65.3475 29.4765C65.2661 29.4765 65.2356 29.4871 65.2865 29.5029ZM45.0277 30.279C45.0837 30.3054 45.1854 30.2104 45.394 29.9411L45.684 29.5715L43.6846 29.5768C41.9853 29.5874 40.4438 29.6296 39.8587 29.6877C39.6756 29.7088 40.8152 29.9094 41.7411 30.0256C42.1074 30.0678 42.9062 30.1153 43.5218 30.1312C44.5495 30.1576 44.7988 30.184 45.0277 30.279ZM63.5058 29.6085C63.5821 29.6191 63.6941 29.6191 63.7602 29.6085C63.8213 29.5979 63.7602 29.5874 63.6177 29.5874C63.4804 29.5874 63.4244 29.5979 63.5058 29.6085ZM58.2096 30.6222C58.2249 30.3951 58.2656 30.2737 58.3724 30.1312L58.5098 29.9411L58.0367 29.9464L57.9901 29.947C57.6038 29.9519 57.4158 29.9543 57.3893 30.0209C57.3642 30.0841 57.4843 30.205 57.7183 30.4405L57.7467 30.469L58.1893 30.9231L58.2096 30.6222ZM35.3155 30.96L34.9492 30.77C34.7508 30.6591 34.5778 30.5746 34.5676 30.5746C34.5473 30.5746 34.3946 31.2293 34.4099 31.2451C34.4201 31.2557 34.6236 31.1923 34.8729 31.1131L35.3155 30.96ZM60.1429 31.6305H59.5578C59.2322 31.6305 58.9117 31.6094 58.8405 31.5777C58.7693 31.5513 58.7082 31.5355 58.7082 31.5461C58.7082 31.5566 58.8558 31.7731 59.0338 32.0212C59.5935 32.7973 59.9598 33.4942 60.3922 34.5818C60.438 34.6979 60.4482 34.6979 60.5296 34.624C60.7738 34.3917 61.7201 34.0697 62.2034 34.0538C62.3051 34.0485 62.2645 34.0274 62.066 33.9746C61.0943 33.7054 60.2243 33.3094 59.9852 33.0243C59.6698 32.6548 59.6698 32.1902 59.9852 31.8153L60.1429 31.6305ZM44.1374 32.4594C44.1832 32.3063 44.234 32.1532 44.2493 32.1162C44.2646 32.0687 44.1475 32.0529 43.7456 32.0582C43.4556 32.0635 43.1606 32.074 43.0893 32.0846C43.058 32.0869 42.9028 32.1004 42.6703 32.1207L42.669 32.1208L42.6664 32.1211C42.3704 32.1469 41.9504 32.1835 41.502 32.2218C40.6982 32.2852 40.0571 32.3538 40.0775 32.3749C40.1334 32.433 41.7767 32.5703 42.8604 32.6125C43.3946 32.6336 43.8779 32.6653 43.939 32.6917C44.0407 32.7287 44.056 32.7075 44.1374 32.4594ZM68.6646 35.0041L68.7002 33.7634C68.7206 33.0771 68.7308 32.5122 68.7206 32.5069C68.6901 32.4858 67.8659 32.7128 67.8659 32.7445C67.8659 32.7603 67.9218 32.8026 67.9931 32.8343C68.0592 32.8659 68.1813 32.9926 68.2576 33.1141C68.5018 33.4995 68.4255 34.0433 68.0643 34.529C67.9524 34.6715 67.9778 34.7454 68.1304 34.7454C68.1915 34.7454 68.3339 34.8035 68.451 34.8774L68.6646 35.0041ZM34.8474 33.2513C34.8474 33.2355 34.7609 33.2091 34.6592 33.188C34.5524 33.1721 34.3692 33.1088 34.2573 33.056L34.0487 32.961L33.8859 33.8954C33.7994 34.4075 33.7282 34.8827 33.7282 34.9513V35.078L34.6338 35.0411C36.3228 34.9777 36.7705 34.9408 36.6026 34.8932C36.5212 34.8669 36.2313 34.8563 35.9667 34.8721C35.2392 34.9196 34.9644 34.8193 34.705 34.4234C34.6032 34.2703 34.588 34.1911 34.6032 33.9165C34.6185 33.6843 34.6541 33.5417 34.7355 33.4308C34.7966 33.3411 34.8474 33.2619 34.8474 33.2513ZM43.2928 38.1401C43.3132 37.5171 43.537 35.1783 43.6286 34.6504L43.6591 34.4815H42.9571H42.2499L42.5755 34.6662C43.013 34.9091 43.13 35.0305 43.2165 35.3473C43.303 35.6429 43.2572 35.928 43.0842 36.1814C42.9672 36.3504 42.606 36.5404 42.3923 36.5404H42.2295L42.3618 36.778C42.4585 36.9575 42.4839 37.0737 42.4686 37.2532C42.4534 37.4749 42.4585 37.4855 42.6213 37.5171C42.8197 37.5541 43.13 37.8286 43.2216 38.0451C43.2572 38.1296 43.2877 38.1771 43.2928 38.1401ZM62.4222 36.5932C62.4222 36.5721 62.1627 36.5404 61.8524 36.5246C61.5369 36.5035 61.1808 36.4718 61.0638 36.456L60.845 36.419V36.588C60.845 36.7463 60.8552 36.7569 60.9875 36.7305C61.0638 36.7147 61.4148 36.6883 61.776 36.6672C62.1322 36.6513 62.4222 36.6144 62.4222 36.5932ZM68.451 37.3746C68.4611 37.364 68.5018 37.1581 68.5425 36.91C68.5832 36.6619 68.6138 36.456 68.6087 36.4507C68.6036 36.4454 68.5374 36.5246 68.456 36.6249C68.3797 36.7305 68.1813 36.9153 68.0185 37.0367L67.7234 37.2637L68.0796 37.3324C68.2729 37.364 68.4408 37.3852 68.451 37.3746ZM33.7434 38.7525L33.6213 38.6681C33.5552 38.6206 33.4382 38.5255 33.3619 38.4516L33.2296 38.3249L33.1838 38.61C33.1584 38.7631 33.138 38.8951 33.1431 38.9057C33.1482 38.9109 33.2194 38.8951 33.3008 38.8687C33.3822 38.8423 33.5145 38.8053 33.5959 38.7842L33.7434 38.7525ZM43.22 39.235L43.2216 39.2171C43.2369 38.9954 43.247 38.8106 43.2369 38.8159C43.2267 38.8159 43.1402 38.9109 43.0486 39.0271C42.9265 39.1696 42.7942 39.2594 42.606 39.3175L42.3414 39.4072L42.3669 39.6342C42.3771 39.7556 42.3669 39.9299 42.3364 40.0196C42.2702 40.215 42.3008 40.2202 42.8146 40.1252L43.13 40.0671L43.1606 39.8507C43.1754 39.7326 43.1998 39.4599 43.2199 39.2362L43.22 39.2353L43.22 39.235ZM69.4786 40.1886C69.5092 40.2202 69.5499 40.1358 69.5855 39.9668C69.6211 39.8137 69.6414 39.687 69.6364 39.6765C69.6262 39.6712 69.5753 39.7715 69.5244 39.8982C69.4634 40.0513 69.4481 40.1569 69.4786 40.1886ZM68.161 43.6836C68.4764 43.1134 68.9088 42.1684 69.0055 41.8305C69.0513 41.6827 69.0208 41.6879 68.6901 41.8833C68.4764 42.01 68.3645 42.1314 68.1254 42.4957C67.0722 44.1165 66.0343 45.3466 63.2871 48.2186C62.6002 48.9419 62.066 49.528 62.0966 49.528C62.1271 49.528 62.412 49.3643 62.7376 49.169C65.2407 47.6221 66.9247 45.9168 68.161 43.6836ZM51.7281 47.5429C52.0384 47.5112 52.0486 47.5059 51.9672 47.4162C51.9214 47.3634 51.8552 47.1997 51.8247 47.0572L51.7637 46.7985L51.3312 46.9252C50.0898 47.2895 48.4669 47.8808 48.6908 47.8913C48.7315 47.8913 49.0062 47.8544 49.3013 47.8121C49.7592 47.7488 50.5121 47.6643 51.7281 47.5429ZM46.8796 49.4435C46.8389 49.359 46.8033 49.2481 46.8033 49.1954C46.8033 49.1478 46.7829 49.1056 46.7575 49.1056C46.6964 49.1056 46.2182 49.6811 46.2538 49.7127C46.2691 49.7339 46.8999 49.6335 46.9457 49.6072C46.9508 49.6019 46.9254 49.528 46.8796 49.4435ZM60.438 50.2037C60.3515 50.1562 60.2345 50.0295 60.1785 49.9239L60.1555 49.8861L60.1552 49.8856C60.1051 49.8031 60.0666 49.7398 60.0666 49.7444C60.0634 49.7444 60.0194 49.774 59.9553 49.8172C59.9182 49.8422 59.8742 49.8718 59.8275 49.9028C59.3798 50.209 58.3368 50.568 57.2837 50.7845L57.0548 50.8267L57.4109 50.8689C57.6093 50.8901 58.0316 50.9429 58.3572 50.9851L58.9473 51.0696L59.4256 50.8637C60.2447 50.5099 60.5906 50.3463 60.5906 50.3199C60.5906 50.304 60.5194 50.2512 60.438 50.2037ZM57.1565 55.3776C57.1616 55.3671 57.1819 54.9975 57.1972 54.554L57.2226 53.7515L57.0904 53.7568C56.836 53.7674 56.7851 53.8043 56.7495 54.005C56.7037 54.2742 56.5409 54.591 56.3374 54.8127L56.1644 54.9975L56.4544 55.0925C56.6172 55.1453 56.836 55.2351 56.9428 55.2931C57.0548 55.3512 57.1463 55.3882 57.1565 55.3776ZM48.355 54.5963C50.1662 54.5065 52.6387 54.3164 53.1119 54.2267C53.3001 54.195 53.2594 54.1897 52.8829 54.1897C52.6336 54.1897 52.3335 54.2003 52.2215 54.2109C50.0593 54.3904 47.0678 54.5487 45.7756 54.5435H45.277V54.7335C45.277 54.8866 45.2923 54.913 45.3686 54.8919C45.7043 54.7863 46.844 54.6702 48.355 54.5963ZM57.3651 57.6108C57.3498 57.5158 57.3346 57.3997 57.3346 57.3627C57.3346 57.2624 57.2633 57.273 57.1667 57.3838C57.0853 57.4736 57.0904 57.4894 57.2379 57.6372L57.4007 57.7903L57.3651 57.6108ZM57.477 62.1776C58.1079 61.845 58.2198 61.4121 57.9705 60.2981C57.9044 59.9919 57.7721 59.4481 57.6754 59.0838C57.5381 58.5559 57.4974 58.4503 57.4719 58.5664C57.3956 58.8832 57.1056 59.1155 56.4951 59.3531C56.2407 59.4534 56.2204 59.4692 56.2713 59.5695C56.3018 59.6329 56.3272 59.9232 56.3323 60.2242C56.3323 60.6888 56.3171 60.7891 56.2204 60.9633C56.1136 61.1534 56.1085 61.1639 56.2 61.2114C56.5562 61.4173 56.7699 61.8767 56.6783 62.2357C56.6478 62.3412 56.6325 62.4363 56.6427 62.4468C56.6732 62.4838 57.2532 62.2937 57.477 62.1776ZM51.8755 67.5523C52.4253 67.3403 53.3281 67.1178 53.9484 67.0436C55.0075 66.9165 56.4953 67.0754 57.4738 67.4145C58.9313 67.9231 59.703 68.5483 60.863 70.1643C61.1858 70.6146 61.6144 71.1497 61.8111 71.3511C62.7038 72.2518 63.3595 73.5074 63.7226 74.9909C63.9445 75.881 64 76.3473 64 77.2639C64 78.1911 63.9092 78.8216 63.6772 79.5527C63.0871 81.3912 61.9322 82.5144 60.1014 83.0071C59.8644 83.0707 59.4861 83.2244 59.2642 83.3409C58.2303 83.8919 57.1006 84.2893 55.986 84.4959C55.6178 84.5648 55.5068 84.6072 55.3807 84.7343C55.0227 85.0946 54.478 85.0893 54.1501 84.7132C54.0594 84.6125 53.9787 84.5754 53.8425 84.5754C53.1717 84.5754 51.8554 83.9979 51.1291 83.3833C49.6413 82.1223 48.7032 79.9448 48.6982 77.7354C48.6982 77.2798 48.6729 77.1049 48.5721 76.7817C48.2039 75.6532 48.0425 74.726 48.0072 73.5551C47.9769 72.522 48.0375 72.0081 48.2745 71.2186C48.7839 69.5179 49.9893 68.2887 51.8755 67.5523ZM57.499 69.4172C56.9593 69.1523 56.3037 68.9722 55.5875 68.898C54.9672 68.8344 54.7654 68.8344 54.13 68.9033C53.0355 69.0199 51.7999 69.5073 51.0535 70.1113C50.7155 70.3868 50.3322 70.8636 50.1608 71.2239C49.9338 71.7008 49.7573 72.5061 49.7573 73.0677V73.3538L49.9842 73.0359C50.2667 72.6438 50.8467 72.0663 51.2501 71.7802C51.4115 71.6637 51.6486 71.4888 51.7747 71.3935C52.163 71.0862 52.8842 70.6623 53.439 70.4133C54.71 69.8464 55.8851 69.608 57.2367 69.6451C57.615 69.6557 57.9277 69.6557 57.9277 69.6451C57.9277 69.6345 57.736 69.5338 57.499 69.4172ZM61.7304 76.1777C61.6951 75.2665 61.6144 74.9221 61.2463 74.175C60.9991 73.6717 60.8529 73.4492 60.5805 73.1578C60.3939 72.9564 60.283 72.8558 60.3435 72.9458C61.211 74.2227 61.5186 74.9909 61.6851 76.2625L61.7557 76.8135L61.7304 76.1777ZM52.4707 74.8797C52.5766 74.7101 53.1162 74.1379 53.3129 73.9896C53.5197 73.8359 53.4693 73.8465 53.0809 74.0585C52.6623 74.281 52.3799 74.6042 52.3849 74.8426V75.0121L52.4707 74.8797ZM59.6727 77.8732C59.9753 77.2056 60.0056 76.3632 59.7534 75.6108C59.6677 75.3512 59.3449 74.6625 59.3449 74.7207C59.3398 74.7366 59.3752 74.8797 59.4155 75.0386C59.6778 76.0559 59.5718 77.4917 59.1633 78.4613C59.0927 78.6255 59.0473 78.7739 59.0574 78.7845C59.1028 78.8321 59.5164 78.2176 59.6727 77.8732ZM53.9383 77.3433C53.9534 76.8983 54.2409 76.1724 54.6242 75.6267C54.8663 75.2824 54.8461 75.2453 54.5233 75.4201C54.256 75.5632 54.0089 75.8122 53.8778 76.0718C53.7416 76.3367 53.7315 77.0202 53.8576 77.3169L53.9333 77.5023L53.9383 77.3433ZM55.9557 77.2056C55.991 77.089 56.1171 76.8665 56.2432 76.7076C56.4853 76.395 56.4348 76.2996 56.1726 76.5804C56.0213 76.7394 55.7086 77.3063 55.7086 77.4122C55.7086 77.444 55.7489 77.4546 55.8044 77.4387C55.8599 77.4228 55.9204 77.3328 55.9557 77.2056ZM58.5783 81.3435C58.6842 81.3435 59.1885 81.0521 59.1885 80.9938L59.1888 80.9886C59.1906 80.9662 59.1907 80.9657 58.8103 81.1581C58.5632 81.2852 58.4925 81.3382 58.5783 81.3435Z" fill="black"/>
</svg>
