<svg width="24" height="24" viewBox="0 0 24 24" fill="none" xmlns="http://www.w3.org/2000/svg">
<path fill-rule="evenodd" clip-rule="evenodd" d="M11 0H13V3H11V0ZM12 7C9.23858 7 7 9.23858 7 12C7 14.7614 9.23858 17 12 17C14.7614 17 17 14.7614 17 12C17 9.23858 14.7614 7 12 7ZM5 12C5 8.13401 8.13401 5 12 5C15.866 5 19 8.13401 19 12C19 15.866 15.866 19 12 19C8.13401 19 5 15.866 5 12ZM13 24V21H11V24H13ZM0 11H3V13H0V11ZM24 11H21V13H24V11ZM2.80747 4.22183L4.22168 2.80761L6.34301 4.92893L4.92879 6.34315L2.80747 4.22183ZM19.0709 17.6569L17.6567 19.0711L19.778 21.1924L21.1922 19.7782L19.0709 17.6569ZM2.80747 19.7782L4.92879 17.6569L6.34301 19.0711L4.22168 21.1924L2.80747 19.7782ZM19.778 2.80761L17.6567 4.92893L19.0709 6.34315L21.1922 4.22183L19.778 2.80761Z" fill="black"/>
</svg>
