<svg viewBox="0 0 24 24" fill="none" xmlns="http://www.w3.org/2000/svg">
<circle cx="12" cy="12" r="6" stroke="currentColor" stroke-width="2"/>
<path d="M13 0H11V3H13V0Z" fill="currentColor"/>
<path d="M13 21H11V24H13V21Z" fill="currentColor"/>
<path d="M0 11H3V13H0V11Z" fill="currentColor"/>
<path d="M24 11H21V13H24V11Z" fill="currentColor"/>
<path d="M2.80747 4.22183L4.22168 2.80761L6.34301 4.92893L4.92879 6.34315L2.80747 4.22183Z" fill="currentColor"/>
<path d="M19.0709 17.6569L17.6567 19.0711L19.778 21.1924L21.1922 19.7782L19.0709 17.6569Z" fill="currentColor"/>
<path d="M2.80747 19.7782L4.92879 17.6569L6.34301 19.0711L4.22168 21.1924L2.80747 19.7782Z" fill="currentColor"/>
<path d="M19.778 2.80761L17.6567 4.92893L19.0709 6.34315L21.1922 4.22183L19.778 2.80761Z" fill="currentColor"/>
</svg>
