<svg viewBox="0 0 48 31" fill="none" xmlns="http://www.w3.org/2000/svg">
<path d="M3.43545 6.93916C3.12489 5.95243 2.17978 4.99947 2 4.02449C2.76741 3.36197 5.29972 2.81183 5.63648 2.51473C7.54304 0.832702 10.6521 1.00498 13.0158 1.00498C15.0275 1.00498 17.6031 1.05328 19.3743 2.1373C21.9486 3.71283 25.6605 3.23606 28.5612 3.60511C30.2437 3.81918 32.0579 3.64705 33.7501 3.64705C35.5251 3.64705 37.2434 3.64686 38.9815 3.31155C40.8756 2.94615 42.9438 2.1373 44.8722 2.1373C45.423 2.1373 45.9511 2.29979 46.4033 2.32602C47.1744 2.37074 46.9775 2.73927 46.9775 3.45833C46.9775 4.06095 46.6153 4.5991 46.3608 5.15681C45.9091 6.14647 45.7602 7.34548 45.1699 8.26019C42.8817 11.8057 42.9582 15.7021 42.9582 19.7197C42.9582 22.6283 42.906 25.3919 43.6068 28.233C43.8436 29.1929 43.0333 28.9229 42.2671 29.2185C39.5358 30.2724 35.7934 30.123 32.9526 29.575C29.7409 28.9554 26.5503 28.4114 23.4042 27.5096C21.5421 26.9758 19.7643 26.1459 17.8006 26.1047C16.2272 26.0716 14.6312 26.0607 13.0583 26.1151C11.1515 26.1811 8.80356 26.7288 7.07193 27.5201C5.77403 28.1131 4.30099 28.2381 3.0633 28.9354C2.84986 29.0557 1.98738 29.8152 2.1276 29.4597C3.02642 27.1807 3.42122 24.9412 3.82887 22.5295C3.95281 21.7962 4.45199 20.9668 4.48812 20.2544C4.52654 19.4966 4.50687 18.7484 4.58381 17.9897C4.77477 16.1069 4.91076 13.9043 4.58381 12.0346C4.27928 10.293 3.97198 8.64382 3.43545 6.93916Z" fill="#231C4E" stroke="black" stroke-width="2" stroke-linecap="round"/>
<path d="M4 7C4 7 3.47053 5.40539 3.47053 4.81323C3.47053 4.59052 2.8866 4.12878 3.01974 4.0102C3.92132 3.60868 4.74075 3.5155 5.32309 3.30803C6.10754 3.02855 7.14597 2.60546 8 2.4041C8.95018 2.18008 10.1418 2.00259 11.1339 2.00259C13.2129 2.00259 14.9778 1.94227 16.9942 2.4041C18.621 2.77669 19.7438 3.58823 21.3423 3.88622C23.3066 4.25241 23.5507 4.41172 25.5593 4.41172C27.0249 4.41172 28.6247 4.4831 30.0672 4.41172C30.7525 4.3778 32.9758 4.51115 33.6735 4.41172C34.6462 4.2731 38.1405 4.24178 39.083 4.0102C40.7604 3.59807 41.8362 3.20717 43.591 3.20717C44.4032 3.20717 45.0944 2.99828 45.8449 3.20717C46.2956 3.60868 45.6455 3.80525 45.3941 4.81323C45.0608 6.14887 44.5 8 44 9C42.2345 9 38.0037 9.15575 36.2726 8.8754C35.3462 8.72538 34.5964 8.549 33.6341 8.549C32.8013 8.549 31.9256 8.62134 31.1003 8.53968C29.962 8.42702 28.8559 7.98819 27.7185 7.88689C26.3966 7.76915 25.0604 7.68081 23.7504 7.55117C22.2526 7.40294 20.755 7.28067 19.2483 7.19679C17.7316 7.11237 16.3349 6.53468 14.788 6.53468C13.1398 6.53468 11.3583 6.45729 9.7938 6.945C9.31031 7.09573 7.99411 7.36247 7.5 7.5C6.64232 7.73873 5.36225 7.7696 4.5 8C4.38702 8.03019 4 7 4 7Z" fill="#E61923"/>
<path d="M5.49412 11.9807C5.20189 11.023 4.57709 8.97516 4.49995 8C4.47708 7.71221 9.57797 6.96458 10.0358 6.48235C10.226 6.13169 12.4227 6.1185 12.7826 6C15.5295 6 18.3382 6.48313 19.3119 6.48313C21.4809 7.44692 22.8544 6.96461 25.7212 7.44774C28.7292 7.44774 29.7214 8.41154 32.4683 8.41154C33.8746 8.41154 36.5885 8.41154 37.962 8.89384C39.3354 9.37615 40.2042 8.83843 41.6244 8.89384C42.9127 8.94411 43.5421 9.20534 43.9999 9.20534C43.9999 9.99905 43.1915 11.6323 42.9999 12.4107C42.5421 12.893 43.0863 12.9657 42.0822 12.9657C40.8063 12.9657 41.0691 12.7523 39.7932 12.7523C38.9726 12.7523 37.3872 12.8817 36.5885 12.7523C35.3394 12.5498 32.8449 12.27 31.5527 12.27C28.9426 12.27 23.2081 10.8231 20.5653 10.8231C17.0816 10.8231 16.2434 9.78967 12.7826 9.85846C12.4902 9.91374 10.4936 10.1276 8.66236 10.8231C7.4537 11.8134 6.5 11.5 5.5 12L5.49412 11.9807Z" fill="white"/>
<path d="M4.59864 24.5785C4.14079 25.0299 3.68298 26.8356 3.68298 27.7384C4.5986 27.7384 9.69471 25.4814 11.4657 25.4814H16.5016C18.752 25.4814 22.9108 26.3842 24.2843 26.8356C26.1155 27.4375 29.4331 28.4462 31.6092 28.6412C33.9625 28.8522 36.1139 29.0926 38.4763 29.0926C39.936 29.0926 41.3143 28.8553 42.5965 28.1898C42.5965 27.7384 42.5965 25.9328 42.1387 25.0299C41.6809 24.5785 42.1387 25.0299 40.7653 25.0299C39.8497 25.0299 39.5718 24.8727 38.9341 25.0299C37.1028 25.4814 35.4821 25.4814 33.8982 25.4814C32.1312 25.4814 30.6011 24.5564 28.8623 24.2596C26.4735 23.852 23.5052 23.2242 21.0796 23.2242C19.7272 23.2242 17.8497 22.6573 16.5016 22.7729C15.2129 22.8834 12.2946 23.6349 11.0079 23.6758C9.92364 23.7103 8.34039 24.1908 7.34543 24.5786C6.5376 24.8935 5.39565 24.3329 4.59864 24.5785Z" fill="#E61923"/>
<path d="M4.14087 25.0299C5.05648 23.6756 4.27906 22.1213 5.0565 21.4186C7.1203 20.6359 10.5 18.5 12 18.5C13.6878 18.5 15.5 19 19 20C22 20 27.3026 21.2229 30.2358 21.4186C32.3978 21.5628 35.3964 21.8372 37.5607 21.87C38.3678 21.8822 39.9995 21.1061 40.7654 21.4186C41.9347 21.8957 42.1388 20.9672 42.1388 22.3214C42.1388 23.2242 42.2894 23.9008 42.1388 25.0299C41.2137 25.4243 40.6094 24.856 38.4764 25.4813C36.1873 26.3841 33.4405 25.4812 30.2358 24.5785C27.9468 24.127 25.6578 24.1271 23.3687 23.6756C21.2923 23.2661 19.2485 23.2242 17.4173 22.7728C14.6704 22.7728 12.7148 23.6756 11.4658 23.6756C9.63456 23.6756 8.71895 24.1269 7.34553 24.5784C5.97211 25.0298 4.14086 25.4813 4.14087 25.0299Z" fill="white"/>
</svg>
