<svg viewBox="0 0 153 132" fill="none" xmlns="http://www.w3.org/2000/svg">
<path d="M39.4865 59.3555C38.451 60.391 36.7657 60.9653 35.6404 62.0504C30.7472 66.7689 26.2451 71.6905 21.9307 76.9636C20.6582 78.5189 17.5785 81.2545 21.1719 81.2545C23.0158 81.2545 24.3301 81.9619 25.8552 83.0336C28.3928 84.8167 31.5681 85.6535 34.3322 87.0105C38.25 88.9337 46.1079 87.8365 47 92.7926C47.4722 95.4162 47.2129 113.004 49.4548 112.363C52.4308 111.513 55.9553 109.5 58.5336 107.889C60.7344 106.514 71.4759 97.9539 73.1067 100.563C73.8388 101.734 69.986 96.986 71 98C73.8591 100.859 81.5033 109.997 84.5141 112.703C84.9672 113.11 85.8096 113.805 85.9269 112.808C86.0855 111.46 88.3482 108.959 89.0142 107.627C91.2789 103.098 92.4369 97.6948 93.6975 92.7926C94.1293 91.1133 93.8644 84.5511 95.8167 84.5511C97.1245 84.5511 98.2157 84.7344 99.4797 85.1267C106.702 87.3681 115.208 86.4349 122.661 86.4349C123.942 86.4349 131.138 87.2449 131.138 85.7285C131.138 84.8293 130.599 84.0527 130.196 83.3476C129.234 81.6644 127.849 80.1787 126.585 78.6904C122.921 74.3751 119.01 69.6991 117.114 64.2481C116.475 62.4125 118.929 61.703 119.338 60.2712C119.944 58.151 129.5 49 129 48.5C128.5 48 124.964 49.4083 122.5 49.4395C118.621 49.4886 113 50.0674 108 52C106.544 52 109.029 50.0287 109 49C108.89 45.053 107.479 39.3173 107.119 35.3635C106.742 31.2116 106.712 27.0722 106.648 22.9096C106.633 21.8876 106.493 21.8883 105.707 22.2817C104.177 23.0467 102.592 24.3563 101.259 25.4475C96.1336 29.6408 91.4105 33.9201 86.6595 38.6078C85.8446 39.4118 81.118 44.8318 80.0401 44.2329C79.5235 43.946 79.1728 44.127 78.6454 43.8257C77.816 43.3517 75.6704 40.7541 75 40C74.6828 39.6432 67.245 31.0193 64.4989 28.2731C62.2087 25.983 60.0911 23.9126 57.1992 22.3863C55.8967 21.6989 55.6885 20.8405 55.2108 21.9154C53.2312 26.3696 51.0557 30.5059 50.1351 35.4158C49.5368 38.6067 49 45.1436 49 48.393C49 49.0975 48.3882 45.4626 47.5449 45.4626C40.3745 45.4626 24 42 24 43C24 44 26.3775 47.229 27.425 48.393C29.603 50.8129 32.2471 52.8813 34.3322 55.4571C35.4094 56.7877 37.9838 58.529 39.4865 59.3555ZM39.4865 59.3555C39.713 59.129 39.6631 59.4527 39.4865 59.3555Z" stroke="currentColor" stroke-width="7" stroke-linecap="round"/>
<path d="M84.4944 18.7272C84.5079 19.3192 84.376 19.8786 84.0234 20.3644C78.965 27.3346 80.5693 1.78425 85.9994 0.271618C86.9631 0.00316342 84.4655 17.4631 84.4944 18.7272Z" fill="currentColor"/>
<path d="M121.146 36.5695C118.243 37.2727 115.958 33.7226 118.22 31.5337C122.74 27.159 131.055 28.0638 134.265 21.4381C135.229 19.4498 136.852 21.5653 136.29 23.0203C134.312 28.138 126.334 35.3127 121.146 36.5695Z" fill="currentColor"/>
<path d="M130.196 68.5391H140.5L150.888 67.0781" stroke="currentColor" stroke-width="3" stroke-linecap="round"/>
<path d="M107.59 97.2666C110.274 99.9507 114.357 102.794 116.067 106.215" stroke="currentColor" stroke-width="4" stroke-linecap="round"/>
<path d="M63.6025 116.529C63.7799 112.879 69.7215 112.111 68.9267 115.744C67.5418 122.075 61.6302 125.878 57.0161 130.664C52.0714 135.793 63.5619 117.365 63.6025 116.529Z" fill="currentColor"/>
<path d="M26.1169 96.7957C19.7567 98.982 13.4641 103.221 6.80811 104.331" stroke="currentColor" stroke-width="4" stroke-linecap="round"/>
<path d="M18.1802 61.9217C15.1457 60.4846 12.0837 59.1008 9.08703 57.5849C6.52503 56.2888 3.40933 54.9902 1.85596 52" stroke="currentColor" stroke-width="3" stroke-linecap="round"/>
<path d="M33.5505 29.5815C35.4094 31.6513 33.0216 34.9486 30.5158 33.4983C24.3654 29.9384 19.0132 20.7129 14.0809 15.663C11.4694 12.9892 15.8799 12.6181 17.6646 13.7638C23.8209 17.7162 28.7239 24.2072 33.5505 29.5815Z" fill="currentColor"/>
</svg>
