<svg viewBox="0 0 34 35" fill="none" xmlns="http://www.w3.org/2000/svg">
<path d="M1.16664 18.7605C-0.649396 9.83019 12.8189 1 20.118 1C21.5047 1 29.9618 3.38549 32 9.5C34.5 17 32.9035 28.2765 23.862 33.1734C20.4441 35.0247 13.6945 33.386 10.3187 31.9646C5.30936 29.8554 2.20109 23.8475 1.16664 18.7605Z" fill="#FF4D4D" stroke="black" stroke-linecap="round"/>
<path d="M17.9844 13.1419C17.2113 13.5984 16.5081 15.0563 15.9019 16.2114C14.8534 16.39 13.802 16.654 12.2249 17.146C12.8706 17.7254 14.7151 18.2004 15.2507 18.6661C14.36 19.5054 14.5863 19.4251 14.3193 19.7374C13.5031 20.6917 12.297 23.7729 14.4174 21.9761C15.6698 20.9147 16.4335 20.438 16.8992 19.9023C17.7008 20.6081 19.1764 21.8204 19.931 22.394C21.0054 23.2106 20.0859 21.2836 20.0832 20.8619C20.0794 20.2644 19.2915 19.2278 19.7012 18.8954C20.1066 18.5665 20.5363 18.2983 20.9439 17.9584C21.1547 17.7827 22.1906 17.1752 22.6563 16.6395C21.4901 16.3392 20.3506 16.3736 19.1165 16.3836C19.0465 15.3822 18.1322 13.4654 17.9844 13.1419Z" fill="#FDFF84" stroke="black" stroke-linecap="round"/>
</svg>
