<svg viewBox="0 0 64 64" fill="none" xmlns="http://www.w3.org/2000/svg">
<path d="M15.3149 11.7445C11.8895 12.643 3.01181 14.4848 2.02919 19.1242C1.60705 21.2122 5.88317 45.1181 7.21186 48.2548C9.94088 54.6973 22.382 54.5574 27.5723 53.3472C30.8272 52.5883 33.2462 49.9555 36.1278 48.2548C39.5184 46.2538 41.846 45.5359 45.7116 45.5359H55.7068C57.499 45.5359 62 48.8698 62 45.5359C62 38.023 59.0385 30.8074 59.0385 23.3967C59.0385 18.6862 56.8173 13.9468 56.8173 9.02561C56.8173 8.61021 50.2032 13.3765 49.0433 14.0318C43.1087 17.3846 32.2955 15.4574 26.4618 12.7371C23.0726 11.1566 18.9953 10.7791 15.3149 11.7445Z" fill="#FF4040" stroke="black" stroke-width="3" stroke-linecap="round"/>
<path d="M30.2309 20.1768C28.0247 17.4844 29.3126 24.625 28.8597 26.7208C27.6471 29.3104 16.3384 31.3877 19.0445 31.5683C21.1288 31.7074 24.4179 32.0743 26.6447 32.2142C28.515 32.3317 26.5573 34.1283 26.1445 34.9609C24.8829 37.5055 22.9785 46.0081 26.6447 40.8887C28.8102 37.8648 30.4049 31.8349 33.0396 34.9609C34.5099 36.7053 37.0818 37.8708 39.0773 38.6995C41.9188 39.8794 38.7876 36.186 38.5414 35.2661C38.1927 33.9628 35.8598 32.1408 36.5765 31.1842C37.2858 30.2374 38.0835 29.4095 38.7915 28.4374C39.1576 27.9349 45.1195 24.1789 44.7074 23.6288C44.1333 22.8626 36.3889 25.0828 35.9334 25.6907C35.5783 26.1648 30.7421 20.8006 30.2309 20.1768Z" fill="#FBFF33" stroke="black" stroke-width="2" stroke-linecap="round"/>
</svg>
